<?xml version="1.0" encoding="UTF-8" standalone="no"?>
<!-- Created with Inkscape (http://www.inkscape.org/) -->

<svg
   width="670mm"
   height="512mm"
   viewBox="0 0 670 512"
   version="1.1"
   id="svg5"
   xml:space="preserve"
   inkscape:version="1.2.2 (b0a8486541, 2022-12-01)"
   sodipodi:docname="mostafa-logo-2.svg"
   xmlns:inkscape="http://www.inkscape.org/namespaces/inkscape"
   xmlns:sodipodi="http://sodipodi.sourceforge.net/DTD/sodipodi-0.dtd"
   xmlns="http://www.w3.org/2000/svg"
   xmlns:svg="http://www.w3.org/2000/svg"><sodipodi:namedview
     id="namedview7"
     pagecolor="#505050"
     bordercolor="#eeeeee"
     borderopacity="1"
     inkscape:showpageshadow="0"
     inkscape:pageopacity="0"
     inkscape:pagecheckerboard="0"
     inkscape:deskcolor="#505050"
     inkscape:document-units="mm"
     showgrid="false"
     inkscape:zoom="0.28566719"
     inkscape:cx="708.86685"
     inkscape:cy="796.38127"
     inkscape:window-width="1920"
     inkscape:window-height="925"
     inkscape:window-x="0"
     inkscape:window-y="35"
     inkscape:window-maximized="1"
     inkscape:current-layer="layer1" /><defs
     id="defs2" /><g
     inkscape:label="Layer 1"
     inkscape:groupmode="layer"
     id="layer1"><path
       d="m 366.87558,43.235483 c -8.16485,2.253296 -15.73226,7.196016 -27.68084,18.026384 l -5.84149,5.37883 -5.50963,-5.015414 C 316.29336,51.01299 307.19916,45.125341 299.63177,43.380846 c -4.51392,-1.01762 -13.67449,-1.01762 -18.18839,0 -7.30189,1.744495 -18.25473,8.577073 -25.62301,16.063834 -3.25267,3.416298 -3.58458,3.561658 -4.97858,2.54404 -3.65095,-2.616732 -11.88215,-7.196014 -16.52884,-9.231235 -8.82864,-3.852428 -14.67018,-5.160794 -24.82645,-5.596903 -17.25902,-0.726874 -27.61445,3.198225 -41.88635,15.918456 -10.22265,9.158568 -13.40893,13.955898 -30.13692,45.865512 -5.77515,11.04842 -11.94856,22.53297 -13.67446,25.44045 -10.15626,17.00876 -18.12196,23.69598 -29.00844,24.35016 -7.501043,0.43611 -10.886475,-1.2357 -16.727976,-8.14097 -5.177713,-6.1057 -10.687325,-17.66294 -13.010647,-27.3303 -1.925053,-8.14095 -2.057826,-23.841342 -0.265545,-31.618852 3.584573,-15.336962 11.550291,-25.004341 19.781507,-24.204773 3.850082,0.436109 6.903612,3.198221 9.293326,8.504371 1.32763,2.98018 1.52676,4.4339 1.52676,13.156342 0,9.08589 -0.132657,10.10352 -1.7259,13.883232 -2.124193,4.94272 -4.580289,6.97796 -9.094186,7.63215 -3.119885,0.4361 -3.451786,0.65417 -3.451786,2.32598 0,2.54404 2.920744,7.70482 5.443219,9.66736 2.787986,2.1806 7.766567,2.25329 11.483887,0.14546 14.802951,-8.4317 19.117681,-40.995472 7.832951,-59.021863 -3.11991,-4.942718 -7.700178,-8.940509 -12.61238,-10.975729 -5.57598,-2.325987 -14.338264,-1.889879 -19.582342,0.944929 -6.770863,3.634353 -14.869331,15.264269 -17.790087,25.585819 -0.464651,1.59913 -1.062085,3.198242 -1.327607,3.488992 -0.265521,0.36344 -1.858671,-2.253302 -3.584566,-5.669602 C 41.675632,57.991034 34.440112,51.013072 23.951927,51.158455 15.056893,51.303921 8.4188017,57.700267 4.7678472,69.548246 c -1.8586492,5.88766 -1.9914187,15.555042 -0.26552,21.442692 2.1241902,7.48676 8.0320858,12.647542 13.0770288,11.629922 5.177717,-1.09032 6.173436,-3.997802 4.11563,-12.574842 -1.394011,-5.96035 -1.261241,-11.702632 0.331907,-14.610112 4.049225,-7.268712 10.554548,-3.12553 16.329692,10.394242 1.526763,3.63435 5.244082,13.81054 8.164855,22.532992 11.151982,32.92721 13.807207,39.25099 19.980644,47.68268 8.297609,11.33916 15.665882,15.40965 27.879953,15.48232 13.342573,0.0728 22.569513,-5.52421 34.717213,-21.00654 l 3.98283,-5.0154 -0.46467,8.79512 c -0.86292,17.08145 1.79232,44.04833 5.90792,59.45798 0.92932,3.56166 3.05351,9.95813 4.71306,14.17398 9.22693,23.98672 22.76862,40.19592 42.41737,50.59016 6.6381,3.48899 10.28905,4.36122 22.56952,5.0881 11.41749,0.72687 19.91426,-1.30836 33.05768,-7.9229 14.93569,-7.55944 28.27825,-18.09906 48.19252,-38.16067 l 5.24409,-5.23346 4.8458,6.68719 c 2.65524,3.70704 7.63379,10.61231 11.01922,15.26429 3.45181,4.72464 6.37258,9.01318 6.57171,9.52198 0.13267,0.50882 -1.39399,3.4163 -3.51819,6.39647 -2.12418,2.98017 -6.50534,9.23125 -9.75798,13.88321 -3.25266,4.72467 -6.23982,8.9405 -6.70447,9.30394 -0.59743,0.58149 -1.99144,0 -4.84582,-1.88985 -15.26761,-9.95813 -31.19902,-11.7753 -43.28033,-5.01542 -10.48818,5.88766 -16.92713,18.53519 -16.79436,33.0726 0.0664,12.06604 3.11991,21.95149 8.89503,28.42063 4.24838,4.79733 6.63809,5.96033 12.8779,6.32377 11.35113,0.5815 20.77722,-5.16078 38.83281,-23.76866 4.04926,-4.14316 6.63809,-6.32376 7.16913,-5.96033 1.99146,1.23568 15.99781,16.2092 16.39608,17.59025 0.33191,1.01763 -0.73018,3.63436 -3.58456,8.86783 -9.62521,17.80831 -15.66588,35.54394 -18.32111,54.00645 -2.0578,13.73786 -0.7302,33.50871 2.92076,44.92057 3.58456,11.04844 11.28473,21.44268 18.98491,25.58583 3.58458,1.88987 4.5803,2.10794 10.62097,2.03525 5.77512,0 7.16912,-0.29075 10.62093,-1.96256 13.67445,-6.90527 21.90569,-21.87878 25.15834,-45.79282 2.65525,-19.48013 0.0664,-40.19591 -7.43465,-59.74872 -1.06211,-2.83481 -4.18198,-9.95813 -6.97,-15.91847 -2.85436,-6.03301 -5.11133,-11.41186 -5.11133,-12.13874 0,-1.30836 16.19693,-18.82592 17.39179,-18.82592 0.3983,0 4.51392,3.99779 9.09421,8.9405 13.67445,14.61009 23.96348,21.00654 33.92061,21.15192 6.43896,0.0728 10.62097,-1.88985 15.20121,-7.12333 6.23983,-7.34139 8.89505,-15.55502 8.96144,-28.0572 0.0663,-6.90525 -0.19915,-9.23123 -1.46038,-13.15633 -5.37685,-17.08146 -19.11769,-25.94927 -35.91207,-23.11449 -5.8415,0.94493 -11.01922,2.90748 -20.24617,7.77752 l -6.57171,3.41628 -1.19484,-1.81716 c -11.01922,-16.49996 -16.46246,-24.7136 -17.32541,-26.31271 l -1.12849,-1.88986 11.35114,-15.77308 11.41752,-15.7004 3.98284,4.28854 c 19.31685,20.42506 39.69578,35.2532 57.28673,41.50428 9.42606,3.34361 13.07701,3.99779 22.43671,3.99779 10.28906,0 15.73228,-1.45375 25.88857,-6.75988 33.78787,-17.66295 54.69784,-64.18265 54.83059,-121.67807 0.0664,-11.2665 0.0664,-11.70263 1.12848,-9.95814 4.97857,7.99558 13.01066,16.28189 19.4496,19.98894 16.3297,9.37661 33.65513,4.94271 46.06833,-11.92069 6.83723,-9.30392 10.62096,-17.881 21.97207,-49.49984 10.82009,-30.455864 17.52457,-39.905176 23.96351,-33.872164 1.59315,1.52644 1.85868,2.32598 2.0578,6.83258 0.19916,3.27091 -0.0664,6.46916 -0.79657,9.085892 -2.25695,8.57705 -0.66381,12.13872 5.50964,12.13872 4.44749,0 7.43463,-2.47135 10.02349,-8.21362 4.04924,-9.013202 4.04924,-20.061631 0.0663,-29.365574 -6.63808,-15.264267 -22.56949,-16.863379 -33.987,-3.343587 -4.11564,4.870028 -8.96141,12.64753 -11.68303,18.680539 -0.99573,2.25333 -1.99145,4.07049 -2.19058,4.07049 -0.19914,0 -1.19485,-2.61673 -2.19058,-5.88765 -6.83723,-21.151915 -22.90139,-30.601226 -38.10261,-22.460282 -8.0321,4.361208 -13.54171,12.138735 -16.92713,23.986702 -1.99144,7.05065 -2.12419,19.770882 -0.26551,26.458082 4.24834,15.627712 13.27616,23.623272 21.77293,19.480122 3.45179,-1.6718 7.03635,-6.68721 7.6338,-10.61231 0.33189,-2.25329 0.19912,-2.47135 -1.79231,-2.90748 -1.19484,-0.21805 -2.85436,-0.43611 -3.65095,-0.43611 -2.0578,0 -5.37684,-3.12555 -7.03635,-6.614522 -2.98716,-6.46914 -2.78801,-19.044002 0.46466,-26.748812 1.99144,-4.870058 3.18629,-6.323784 6.37258,-8.140969 8.49674,-4.724646 18.25472,4.215858 22.10481,20.279671 4.64667,19.770892 -1.65951,46.665082 -14.40465,61.638612 -5.64238,6.54183 -8.76225,8.43168 -14.80292,8.86781 -6.63811,0.43613 -10.82011,-0.79957 -16.6616,-5.08809 -6.77087,-4.94271 -11.68304,-12.3568 -20.57811,-31.03737 -9.22693,-19.552792 -19.51594,-39.178294 -23.49881,-45.138634 -8.82866,-13.083663 -21.97206,-23.041773 -35.51378,-26.966872 -8.09846,-2.325987 -20.8436,-2.180603 -30.33605,0.290747 -8.6959,2.325986 -16.86076,5.887648 -24.69372,10.757676 l -5.90788,3.707044 -1.7259,-1.526441 C 401.79195,49.268577 393.36156,44.107803 386.19244,42.654075 380.48368,41.491071 372.25243,41.781816 366.8756,43.235566 Z m 19.91427,17.808309 c 3.38543,1.671807 8.23124,6.905272 10.08989,10.903064 l 0.99573,2.03524 -15.9978,17.008762 c -8.76228,9.376612 -16.13055,17.154122 -16.39608,17.226812 -0.26552,0.0728 -4.58029,-5.74226 -9.62525,-12.865602 l -9.16054,-13.01097 1.99141,-2.834802 c 2.05781,-2.76211 11.41753,-11.775292 15.79867,-15.118892 6.83723,-5.23347 15.99779,-6.614528 22.30397,-3.343612 z m -87.68916,1.817186 c 7.16916,3.925099 21.04276,18.46249 19.78152,20.78848 -0.26553,0.43613 -4.58029,6.32377 -9.62524,12.93831 -7.56741,9.958112 -9.42608,11.993342 -10.28903,11.411852 -0.66381,-0.36344 -7.70017,-7.85019 -15.66589,-16.645322 -16.66161,-18.317142 -15.86504,-16.281912 -9.42608,-23.841363 5.5096,-6.541835 7.96571,-7.704818 15.2676,-7.196018 4.84579,0.290767 6.70446,0.799566 9.95712,2.544061 z m 171.86013,-0.436129 c 16.46246,6.541827 30.2033,24.931649 37.90347,50.735551 10.42181,34.96245 7.10276,73.92269 -8.96142,104.74199 -8.6295,16.49994 -22.50311,30.23779 -36.57584,36.19813 -7.10277,2.98017 -12.61238,3.9251 -20.44533,3.41631 -12.01494,-0.87227 -24.29541,-5.96035 -36.17759,-15.11891 -5.77512,-4.5066 -26.22044,-25.8039 -26.22044,-27.33033 0,-0.79955 14.86932,-22.46029 17.79008,-25.87659 0.92933,-1.09029 1.92505,-1.96254 2.12417,-1.96254 0.26553,0 2.8544,2.18062 5.70877,4.79735 10.28905,9.37662 22.70227,17.51756 29.93777,19.55281 6.17343,1.74449 13.67445,2.47134 18.58666,1.81716 13.93998,-1.88985 25.95492,-17.00876 30.5352,-38.30604 1.65952,-7.99559 1.65952,-24.7136 -0.0663,-32.20036 -5.70876,-25.1497 -23.10056,-37.36113 -43.01482,-30.09242 -7.6338,2.76211 -23.69799,16.93606 -34.25254,30.09242 -2.65525,3.4163 -5.9079,7.48676 -7.23551,9.08588 l -2.32334,2.90747 -3.05352,-3.63435 c -3.58455,-4.28852 -16.72799,-23.40521 -16.72799,-24.35014 0,-0.87224 12.08133,-15.26427 23.89713,-28.638702 19.58236,-21.951462 33.45597,-33.072576 46.06833,-36.852309 6.50534,-1.962549 16.13055,-1.52642 22.50313,1.01762 z m -249.59213,2.398684 c 8.69588,3.052841 20.97635,12.284093 32.32748,24.350145 8.23126,8.79512 28.27827,32.563782 31.13264,36.924992 l 1.39399,2.10794 -3.71731,5.66959 c -5.70878,8.64974 -16.26334,22.89641 -16.86077,22.67833 -0.26551,-0.14525 -2.98714,-3.48897 -6.04064,-7.48675 -10.55457,-13.81055 -24.56091,-27.62107 -32.39387,-31.98229 -8.89504,-4.94272 -19.05131,-5.37885 -26.61875,-1.163 -5.37684,2.98017 -9.35969,6.61452 -12.94428,11.62993 -13.67445,19.5528 -14.5374,51.31704 -1.92504,72.10551 6.97002,11.48456 15.66589,16.64535 28.14552,16.64535 12.14769,0 25.82214,-6.97796 42.21823,-21.51538 3.38543,-2.98017 6.43895,-5.37882 6.83721,-5.37882 0.3983,0 4.64669,5.74226 9.42611,12.72022 10.28902,14.97352 10.15628,12.64754 0.99571,23.40522 -10.75371,12.50217 -22.30399,22.09686 -33.92063,28.20257 -9.89077,5.16077 -12.54598,5.74228 -24.22904,5.81495 -9.16054,0 -10.82008,-0.21805 -14.93569,-1.74448 -9.75799,-3.63435 -17.39179,-9.0132 -25.75578,-18.02637 -9.09418,-9.74007 -16.13056,-23.33255 -20.57808,-39.46907 -3.98286,-14.39203 -4.71304,-21.07923 -4.2484,-40.2686 0.46468,-19.48013 1.26124,-25.51314 5.37687,-39.17831 7.96572,-26.603442 22.9678,-47.464634 39.56302,-55.09675 7.56742,-3.48899 18.45386,-3.925099 26.7515,-0.944927 z m 119.28644,44.775207 c 10.08989,13.8832 10.75369,14.97352 9.82437,16.86337 -0.9957,2.03524 -17.79006,22.9691 -18.45389,22.9691 -0.26552,0 -1.99141,-1.88986 -3.71732,-4.28853 -1.79227,-2.32599 -5.90791,-7.55946 -9.16056,-11.62992 -3.98285,-5.01541 -5.70877,-7.70484 -5.44324,-8.50438 0.66381,-1.88988 18.52027,-25.00434 19.31685,-25.00434 0.39828,0 3.85007,4.28853 7.63379,9.5947 z m 119.22008,21.29729 c 5.77513,3.70703 9.55884,11.41185 10.95282,22.38759 2.1242,16.57266 -5.31045,36.12546 -15.66586,41.28624 -6.37259,3.19822 -16.13056,0.94492 -25.3575,-5.88766 -5.97428,-4.36123 -16.26333,-14.31934 -17.52457,-16.86338 -0.59743,-1.163 -0.13265,-2.25331 2.78802,-6.61452 9.16055,-13.81054 21.17548,-28.42062 26.95063,-32.70916 6.17341,-4.65197 12.28046,-5.16077 17.85646,-1.59911 z m -239.63501,2.61673 c 1.52677,0.79955 4.11563,2.76209 5.77515,4.28854 3.18626,3.12553 14.33827,17.59025 21.90569,28.4933 l 4.64666,6.7599 -6.23981,6.32376 c -13.47532,13.81053 -25.82216,20.64311 -34.65083,19.18938 -7.16912,-1.163 -13.74081,-8.43169 -17.05987,-18.75325 -2.05781,-6.25109 -2.58886,-19.26207 -1.06209,-26.24003 2.25695,-10.61229 8.56313,-19.91624 14.73655,-21.8061 2.38971,-0.79956 9.16056,0.21806 11.94855,1.7445 z m 149.29063,15.33696 c 8.89504,12.57484 16.26332,23.33252 16.26332,23.76865 0,1.09032 -17.3918,24.78627 -18.58665,25.36779 -0.26553,0.0728 -1.99143,-2.03525 -3.78372,-4.72467 -1.85866,-2.68943 -6.37258,-9.15856 -10.08989,-14.39203 -3.71734,-5.16077 -6.70447,-9.88544 -6.70447,-10.39424 0,-0.50883 2.788,-4.43393 6.1734,-8.72246 3.38544,-4.28851 7.43468,-9.52198 9.0278,-11.62991 1.52677,-2.03525 3.18631,-3.77972 3.65097,-3.77972 0.46468,0 2.32333,2.03522 4.04924,4.50659 z m -68.30595,-0.72687 c 2.19058,2.61673 13.07704,17.15414 15.00209,19.91624 0.53104,0.79956 -1.85867,4.43392 -14.47103,21.73343 -5.90791,8.14094 -6.37257,8.64973 -7.70019,7.41407 -2.19057,-1.96256 -17.12625,-22.75104 -17.12625,-23.76865 0,-0.29075 0.39827,-0.94493 0.92931,-1.38106 0.53105,-0.50882 5.24409,-6.75989 10.48819,-13.9559 5.17771,-7.12335 9.69161,-13.01099 9.89074,-13.01099 0.26553,0 1.59315,1.38105 2.98714,3.05286 z m 34.25255,42.52191 c 1.99143,2.76211 6.83723,9.4493 10.7537,14.97351 6.83724,9.52201 7.10276,10.10349 6.17341,11.62994 -1.85865,3.05284 -21.17548,28.12988 -21.70652,28.12988 -1.06212,0 -21.90572,-28.7114 -21.90572,-30.23781 0,-0.94493 21.83932,-29.36556 22.6359,-29.36556 0.26552,0 2.05779,2.1806 4.04923,4.87004 z m -2.05781,93.76624 c 2.12419,2.47137 8.09846,10.75768 13.40895,18.53521 0.99571,1.45372 1.79227,2.90748 1.79227,3.27092 0,0.36342 -4.18198,5.16076 -9.29332,10.75767 l -9.29332,10.1035 -8.96142,-9.81276 c -4.91219,-5.37884 -8.96142,-10.17618 -8.96142,-10.61231 0,-1.6718 17.32541,-24.93163 18.52026,-24.93163 0.26553,0 1.52677,1.23567 2.788,2.6894 z m 69.63354,13.30174 c 6.04067,1.81716 9.95714,8.359 9.95714,16.49994 0,6.61452 -0.92933,9.95813 -3.78371,13.37441 -2.38971,2.90748 -5.37685,4.28854 -9.49246,4.28854 -5.77514,0 -15.53315,-7.77751 -21.77293,-17.29951 l -3.05352,-4.72464 2.32333,-2.32599 c 3.11989,-3.12556 9.82436,-7.3414 14.40466,-9.08589 4.182,-1.52643 7.89932,-1.81718 11.41749,-0.72686 z m -132.23072,2.25329 c 3.91648,1.45374 13.80723,8.28631 14.40465,9.88545 0.79658,2.32596 -8.82866,14.61008 -14.86931,19.04398 -5.11133,3.70704 -6.90362,4.43392 -10.7537,4.43392 -4.31476,0 -8.09848,-2.10794 -10.35543,-5.96034 -1.46038,-2.39868 -1.85867,-3.99779 -2.05781,-8.14094 -0.3319,-6.46914 0.59743,-10.39424 3.38543,-14.39204 4.77944,-6.83257 10.95284,-8.28633 20.24617,-4.87003 z m 61.93337,62.2201 c 3.25267,4.79733 8.82866,16.42725 11.41751,23.91401 4.11563,11.84799 5.50962,20.71581 5.2441,33.50872 -0.39829,21.8788 -9.62523,38.01532 -21.70654,38.01532 -7.7002,0 -13.34258,-5.52421 -17.12629,-16.71801 -3.51817,-10.39424 -3.85008,-22.60567 -0.99571,-37.07039 2.65523,-13.66515 6.04067,-22.96911 12.67876,-35.2532 4.91216,-8.94052 5.90789,-10.46693 6.83722,-10.53962 0.46466,0 2.05782,1.88985 3.65095,4.14317 z"
       id="path323"
       style="fill:#000000;stroke:none;stroke-width:0.0694625" /></g></svg>
