<?xml version="1.0" encoding="UTF-8" standalone="no"?>
<!-- Created with Inkscape (http://www.inkscape.org/) -->

<svg
   width="512mm"
   height="512mm"
   viewBox="0 0 512 512"
   version="1.1"
   id="svg5"
   xml:space="preserve"
   inkscape:version="1.2.2 (b0a8486541, 2022-12-01)"
   sodipodi:docname="logo.svg"
   xmlns:inkscape="http://www.inkscape.org/namespaces/inkscape"
   xmlns:sodipodi="http://sodipodi.sourceforge.net/DTD/sodipodi-0.dtd"
   xmlns="http://www.w3.org/2000/svg"
   xmlns:svg="http://www.w3.org/2000/svg"><sodipodi:namedview
     id="namedview7"
     pagecolor="#505050"
     bordercolor="#eeeeee"
     borderopacity="1"
     inkscape:showpageshadow="0"
     inkscape:pageopacity="0"
     inkscape:pagecheckerboard="0"
     inkscape:deskcolor="#505050"
     inkscape:document-units="mm"
     showgrid="false"
     inkscape:zoom="0.31723122"
     inkscape:cx="1234.1156"
     inkscape:cy="972.4768"
     inkscape:window-width="1920"
     inkscape:window-height="925"
     inkscape:window-x="0"
     inkscape:window-y="35"
     inkscape:window-maximized="1"
     inkscape:current-layer="layer1" /><defs
     id="defs2" /><g
     inkscape:label="Layer 1"
     inkscape:groupmode="layer"
     id="layer1"><path
       d="m 484.49677,159.44389 c -6.95898,0.65017 -13.17053,5.6815 -18.63464,15.094 -1.05867,1.81617 -2.0338,3.5235 -2.20095,3.74122 -0.16888,0.27465 -0.66125,-0.66858 -1.05953,-2.06219 -0.98444,-3.19822 -4.16334,-8.07304 -7.1652,-10.88361 -11.69415,-10.99458 -30.3284,-5.02604 -34.43291,11.03006 -1.05229,4.21201 -0.98221,9.7487 0.2509,13.98901 3.3723,11.61689 14.57179,16.53507 20.38186,8.91218 1.00112,-1.24943 1.81261,-2.85287 1.83364,-3.53597 0.0351,-1.13851 -0.16334,-1.20789 -2.96562,-1.38244 -2.24184,-0.13971 -3.43404,-0.49909 -4.56869,-1.42528 -4.38372,-3.524 -5.26408,-12.70432 -1.78323,-18.93236 2.33509,-4.18915 5.99416,-5.78632 10.28612,-4.49235 3.09976,0.93454 5.56745,2.85632 7.90774,6.31006 6.52496,9.53193 5.05913,25.86646 -3.3192,37.43582 -5.32091,7.36817 -10.30311,10.25174 -17.02685,9.77588 -9.92812,-0.61843 -17.04573,-6.53707 -25.73126,-21.45073 -5.5224,-9.52648 -13.46195,-21.31382 -17.41025,-25.95141 -5.34388,-6.20738 -13.04123,-11.53477 -20.65738,-14.29056 -13.92346,-5.03079 -29.5716,-3.55306 -46.10023,4.37173 l -4.68091,2.21794 -4.51608,-3.13303 c -8.83726,-6.08282 -14.98797,-8.23399 -23.65259,-8.20339 -5.85705,0.0344 -11.35235,1.3461 -16.36582,3.94255 -3.70786,1.8793 -10.87493,6.68 -13.39058,8.91873 l -1.85583,1.65247 -3.45099,-2.55338 c -5.17734,-3.80157 -11.1606,-7.48228 -15.35322,-9.39742 -5.4979,-2.50977 -14.41468,-3.4074 -20.39389,-2.0118 -5.69547,1.2992 -11.80209,4.22681 -16.77231,8.02367 l -4.06846,3.16862 -3.83058,-1.94962 c -9.87314,-5.00665 -16.6714,-6.97003 -26.91977,-7.60841 -8.56701,-0.53365 -12.67315,-0.048 -19.52461,2.31991 -4.25604,1.4459 -12.30559,6.24868 -16.38632,9.81578 -4.82237,4.20531 -6.99703,7.09266 -15.76401,20.86215 -10.24178,16.07303 -15.884701,23.47818 -20.355231,26.6788 -4.30692,3.09674 -8.244452,4.61953 -12.260007,4.76862 -7.106839,0.24173 -12.218147,-3.09948 -17.615497,-11.4775 -3.867931,-5.94435 -5.497841,-10.32345 -6.149138,-16.5237 -1.052459,-10.10359 2.707774,-20.19255 9.006086,-24.13482 4.701978,-2.90104 9.133331,-2.22575 12.216696,1.84464 2.119376,2.81262 2.985469,5.94642 2.846927,10.4435 -0.229731,7.45717 -3.654467,11.8636 -8.978815,11.53195 -2.722227,-0.16957 -2.908662,0.67431 -0.803323,3.94234 2.10535,3.26804 5.22936,4.71738 8.780297,4.02602 5.044429,-0.99756 9.302834,-5.12392 11.615724,-11.19658 0.82726,-2.11578 1.03299,-3.58585 1.20104,-7.73889 0.13503,-4.38321 0.0117,-5.58862 -0.82134,-8.49221 -1.814,-6.21566 -6.345256,-11.4599 -12.123392,-13.98711 -3.125765,-1.39243 -9.611067,-1.7964 -13.169016,-0.87737 -6.551942,1.75918 -12.093448,7.17443 -14.967102,14.52394 l -1.570951,4.12267 -2.174887,-3.61454 c -2.628983,-4.49837 -7.186236,-10.20049 -9.730496,-12.24111 -6.146597,-4.88858 -15.413452,-4.83845 -20.700728,0.13648 -1.941168,1.81823 -4.154392,5.95792 -4.853093,9.10832 -1.163906,5.23168 0.178454,11.13279 3.169786,14.28491 3.10967,3.21651 6.580244,3.83194 9.929572,1.87327 1.634628,-0.98184 1.662686,-1.89262 0.269514,-6.14291 -0.586166,-1.80458 -1.074713,-4.17341 -1.043147,-5.19806 0.11399,-3.70011 3.082277,-6.30988 6.100211,-5.32344 4.130086,1.34092 7.261944,6.44096 14.973821,24.31675 3.181816,7.38452 6.795217,15.08108 8.014888,17.15325 4.426336,7.34797 9.453779,12.10981 15.665261,14.89215 4.549395,2.05144 13.314817,2.65449 18.251419,1.25104 6.75911,-1.97442 11.253911,-4.6602 16.469891,-9.92465 1.3249,-1.34333 2.89875,-2.95632 3.43672,-3.49315 l 1.03413,-1.01923 -0.40299,3.9673 c -0.86529,8.55826 0.67543,22.34245 3.54515,32.04591 2.43668,8.13656 4.42689,12.5381 8.29482,18.48247 7.12341,10.938 16.8253,18.89974 29.22752,23.83579 4.47635,1.81876 5.19519,1.92059 14.12248,2.47667 8.68711,0.54114 9.81154,0.49702 14.7794,-0.6193 9.37177,-2.15388 19.69967,-6.70066 29.51798,-12.93317 5.23641,-3.32401 14.42998,-10.10875 17.85441,-13.2034 l 2.64101,-2.40203 2.95129,3.1496 c 1.63053,1.75556 5.55107,5.99217 8.6955,9.38195 3.18273,3.44921 5.70245,6.28677 5.62063,6.33871 -0.37433,0.43296 -13.5452,15.23991 -14.33565,16.16025 l -0.91578,1.08363 -4.26917,-2.03398 c -10.75212,-5.11843 -19.85854,-6.37007 -28.27829,-3.87175 -6.11333,1.84352 -11.68084,6.80089 -13.65419,12.26733 -1.57271,4.17961 -1.67679,10.16172 -0.25579,14.81296 1.19656,4.12397 4.18583,8.64476 7.12864,10.76723 6.39382,4.67585 16.53994,3.42573 26.85617,-3.3461 3.8873,-2.4955 13.59981,-10.50267 14.11529,-11.61124 0.33955,-0.60624 11.81309,8.43546 13.86118,10.95848 0.0767,0.11872 -1.10222,1.92754 -2.65184,4.05533 -12.77816,17.68312 -17.1828,36.9715 -12.20338,53.70752 3.92546,13.19127 15.05274,21.75512 26.3303,20.23326 14.5395,-1.946 23.70331,-15.57672 23.62251,-35.08744 -0.0564,-12.49399 -3.76815,-23.50467 -12.27135,-36.52485 -2.22196,-3.38935 -3.85567,-6.34281 -3.72506,-6.67689 0.34131,-0.66314 10.18795,-9.11822 11.9462,-10.20643 1.18726,-0.78157 1.3056,-0.71715 5.71706,3.20784 14.87368,13.24589 26.86185,17.30062 35.6878,12.03291 4.7002,-2.84411 7.86051,-7.78031 8.89583,-14.04662 1.76912,-10.5552 -3.08676,-19.58392 -12.85909,-23.95689 -4.07603,-1.79382 -12.67955,-2.44383 -17.80755,-1.33739 -3.22893,0.65437 -9.80192,3.09665 -14.88842,5.46042 -1.87307,0.90993 -1.87307,0.90993 -3.18858,-0.65489 -0.73607,-0.84433 -4.06666,-4.70198 -7.43727,-8.56214 -3.3706,-3.86016 -5.99287,-7.27444 -5.86401,-7.55159 0.29952,-0.60871 8.97852,-10.22017 13.41284,-14.8489 l 3.0241,-3.1196 6.73482,5.32445 c 24.94141,19.74753 48.20419,27.58442 67.3691,22.61852 14.3937,-3.72317 27.17356,-13.64952 35.42012,-27.45141 3.17432,-5.39163 7.11719,-14.89886 8.54057,-20.74177 2.16039,-8.93387 3.19343,-20.33338 2.51293,-28.18946 -0.14229,-1.891 -0.21328,-3.49237 -0.17149,-3.5468 0.0419,-0.0544 1.13112,1.04003 2.37009,2.48603 5.34214,6.26433 12.46179,10.81428 19.15222,12.3717 11.91016,2.68107 23.3695,-2.13745 31.13155,-13.23188 3.3552,-4.75296 5.61722,-9.17481 10.37682,-20.45626 4.41303,-10.44754 7.02689,-15.87407 9.34443,-19.49396 3.79059,-5.86654 8.52703,-7.28254 11.00815,-3.19262 1.18315,1.95582 1.07441,5.48518 -0.22825,8.71201 -1.21737,3.06105 -1.10635,4.66492 0.34331,5.78184 1.7246,1.30515 5.73489,1.32681 7.69854,0.0803 1.92364,-1.249 4.14533,-4.36155 5.0284,-6.98716 0.93014,-2.8508 0.9103,-7.41477 -0.0688,-10.78375 -2.10094,-7.31717 -8.34514,-11.64148 -15.74624,-10.96184 z m -123.61127,10.2089 c 14.02777,5.55059 25.67399,20.7057 29.61752,38.51789 2.33001,10.29721 2.42167,20.34094 0.36035,29.96539 -4.87364,22.79526 -21.17119,40.14508 -41.09993,43.86568 -16.33777,3.03174 -34.09355,-3.89176 -51.52346,-20.09154 -2.57376,-2.38466 -4.67415,-4.5117 -4.66713,-4.73941 0.0123,-0.39846 11.90004,-13.91652 13.75764,-15.62591 0.57975,-0.59125 1.48648,-0.0785 5.52391,2.96768 5.76206,4.35132 12.66256,8.2032 18.69142,10.40383 5.75038,2.12625 16.07357,2.94041 20.20777,1.54393 9.23793,-3.01771 15.80161,-10.3655 18.5245,-20.63314 1.047,-4.04125 1.20745,-5.34304 1.19112,-10.02087 0.029,-4.84611 -0.14139,-5.82629 -1.41802,-9.95524 -4.92215,-15.99101 -19.90868,-22.97017 -35.07412,-16.32927 -6.46516,2.84822 -16.89653,10.75358 -24.0677,18.29167 -5.18122,5.43771 -4.37706,5.37373 -8.57433,1.00581 -4.27383,-4.48676 -9.08006,-9.91922 -10.31024,-11.64982 l -0.88569,-1.19587 5.95061,-5.67495 c 21.77769,-20.77272 33.46584,-29.11309 45.14929,-32.09253 5.09323,-1.2797 13.3765,-0.64967 18.64649,1.44667 z m -64.90563,-2.33201 c 1.46719,0.54767 3.51731,1.70198 4.53537,2.50685 1.95604,1.60472 4.42519,4.78135 4.39888,5.63521 -0.007,0.22771 -2.48089,2.41201 -5.48393,4.84852 -2.96303,2.43901 -8.1945,6.90402 -11.57715,9.94426 l -6.18554,5.48921 -2.33005,-2.48354 c -1.32254,-1.33714 -4.50176,-4.90018 -7.13805,-7.85907 l -4.76795,-5.37307 1.78103,-1.82821 c 2.69157,-2.74109 9.6272,-7.84136 12.80413,-9.41154 5.33373,-2.5765 9.59999,-3.05219 13.96326,-1.46862 z m -62.85786,1.50279 c 3.11874,1.62012 11.65999,8.19778 13.24345,10.17854 l 1.04231,1.31967 -6.51312,7.00875 c -3.56733,3.82723 -6.80387,7.33284 -7.21648,7.70638 -0.6598,0.58627 -1.6013,-0.0998 -7.10386,-5.06228 -3.51176,-3.18453 -8.62802,-7.66672 -11.44549,-9.95249 -2.77745,-2.28329 -5.16333,-4.25699 -5.23989,-4.37581 -0.30624,-0.47536 2.27751,-3.62241 4.37881,-5.43067 3.82827,-3.1836 6.25654,-3.88785 11.49381,-3.33347 3.23738,0.37276 5.38513,0.96281 7.36046,1.94138 z m -56.53764,0.75578 c 7.69269,2.87463 16.18719,8.36571 24.42541,15.66595 3.16022,2.87748 6.83035,6.12891 8.11987,7.23585 3.82675,3.37525 14.22263,13.54751 14.21036,13.94601 -0.021,0.68308 -8.83417,10.74246 -13.17966,15.09156 l -1.69746,1.71935 -2.4867,-2.60737 c -8.07251,-8.7728 -18.59756,-17.35617 -25.12053,-20.44311 -14.62273,-7.07054 -29.47812,-1.37992 -35.39256,13.53683 -4.17636,10.57633 -3.13471,22.33324 2.88037,31.4912 2.87268,4.39946 7.24761,8.20809 11.7187,10.19764 3.6792,1.65503 13.68739,2.27843 18.41682,1.09012 7.55625,-1.81068 17.21412,-6.74141 25.01851,-12.70013 2.01246,-1.52863 3.39813,-2.24079 3.66959,-1.9387 0.23143,0.29958 3.25403,3.7388 6.74473,7.60643 3.44892,3.92205 6.35317,7.29688 6.4645,7.58898 0.18613,0.46787 -5.76973,6.31361 -10.75224,10.50894 -4.65172,3.87374 -13.19567,9.10199 -18.51537,11.22309 -12.63256,5.14465 -24.3084,5.27288 -35.47312,0.52799 -16.70616,-7.14331 -28.04789,-21.76615 -32.01536,-41.40489 -1.07967,-5.31441 -1.10392,-5.82922 -0.85636,-15.1674 0.33671,-10.92959 0.77592,-13.46878 3.71415,-21.61275 2.4105,-6.63692 4.96328,-11.38283 8.97301,-16.55132 6.89478,-8.98116 15.29262,-14.67478 24.3754,-16.56149 3.91475,-0.78275 12.71493,-0.006 16.75794,1.55719 z m 87.87196,27.60288 c 3.80397,4.1153 6.90311,7.67335 6.89259,8.0149 -0.009,0.28462 -3.16174,3.68138 -7.00755,7.43422 l -6.98999,6.86495 -4.55406,-4.5042 c -2.4902,-2.49352 -5.71997,-5.7175 -7.16084,-7.11905 -2.22048,-2.13453 -2.56325,-2.7262 -2.1036,-3.32495 0.62505,-0.75955 13.72785,-14.65819 13.92975,-14.70264 0.0418,-0.0544 3.18799,3.27842 6.9937,7.33677 z m 85.21796,10.89766 c 2.73945,0.91209 5.24544,2.89329 6.85491,5.33193 6.08636,9.44757 4.21027,23.4752 -4.10256,30.31479 -5.63881,4.66775 -12.60802,4.34771 -22.51068,-1.00297 -3.11522,-1.73398 -12.75635,-9.06455 -13.67504,-10.49062 -0.61247,-0.95071 9.84931,-12.44729 16.60935,-18.35701 6.84009,-5.90473 11.58354,-7.5484 16.82402,-5.79612 z m -172.77377,2.01343 c 3.34491,2.09049 7.39608,5.99303 15.73657,15.18177 l 6.32188,7.00975 -3.83001,3.24053 c -10.95209,9.18468 -21.46436,13.20667 -28.53057,10.82735 -7.50482,-2.46369 -12.3452,-10.69296 -12.04358,-20.48404 0.26306,-8.53874 4.16002,-15.25417 10.29089,-17.66694 2.76082,-1.08278 8.70815,-0.14197 12.05482,1.89158 z m 113.14296,14.51926 7.44603,8.27751 -3.20002,3.62195 c -1.74625,2.0015 -4.8592,5.40074 -6.8892,7.49861 l -3.64913,3.87917 -3.76394,-4.11281 c -8.88866,-9.62211 -12.02959,-13.12574 -12.05909,-13.46977 0.005,-0.17078 0.83573,-1.08864 1.86811,-2.05094 1.03238,-0.96231 4.13829,-4.13386 6.91694,-7.09767 2.73862,-2.96627 5.21599,-5.26442 5.45268,-5.13562 0.23494,0.18573 3.76744,3.99893 7.87762,8.58957 z m -50.37376,-1.42679 c 3.61783,3.64738 6.52734,6.85144 6.48204,7.01973 -0.13587,0.50483 -13.88125,15.73227 -14.99195,16.63266 -0.86348,0.68766 -1.21676,0.43752 -4.59789,-3.08107 -2.95305,-3.0927 -8.84687,-9.67656 -9.61771,-10.69415 -0.1166,-0.12146 0.17767,-0.55928 0.63029,-0.93034 0.41436,-0.43046 3.8581,-4.1513 7.63785,-8.36452 3.77801,-4.1563 7.08935,-7.48614 7.36784,-7.41178 0.27847,0.0745 3.47347,3.12512 7.08953,6.82947 z m 26.07838,25.80693 c 4.38866,4.665 7.91414,8.7059 7.86884,8.87419 -0.007,0.2277 -3.73798,4.1588 -8.2541,8.83944 l -8.16354,8.50289 -4.50876,-4.67248 c -2.4867,-2.60737 -6.33594,-6.55438 -8.55292,-8.80274 -2.33181,-2.42661 -3.83697,-4.34546 -3.62804,-4.61762 2.21469,-2.88486 16.2505,-17.12461 16.6856,-16.92639 0.31676,0.13373 4.16601,4.08078 8.55292,8.80271 z m -0.67221,54.36875 c 3.22276,3.45171 5.81378,6.57887 5.80501,6.86349 -0.0193,0.62619 -12.34508,11.43633 -13.39646,11.71304 -0.44563,0.14343 -8.85273,-6.88223 -13.647,-11.4014 -0.42982,-0.36898 1.1563,-2.38044 6.41933,-7.87009 6.79862,-7.16206 6.96401,-7.32285 7.9803,-6.46106 0.54643,0.4903 3.6561,3.70681 6.83882,7.15602 z m 49.06435,3.56957 c 1.02332,0.63408 2.42066,2.14699 3.10792,3.27343 1.22318,1.95832 1.29272,2.30487 1.17873,6.00498 -0.10348,3.35858 -0.24635,4.09112 -1.16741,5.34553 -3.68774,5.1315 -11.58295,4.92487 -18.67455,-0.53586 -3.36917,-2.60532 -8.45211,-8.16909 -8.10905,-8.88917 0.42838,-0.88585 5.69958,-4.03659 8.98959,-5.37158 5.80885,-2.37579 11.0619,-2.33375 14.67477,0.17267 z m -102.39966,-1.30253 c 4.41732,1.13067 12.97289,5.94118 12.6576,7.06222 -0.0889,0.27963 -1.71325,2.23167 -3.66319,4.33454 -6.92922,7.49613 -14.55709,10.32899 -20.1263,7.52959 -3.31715,-1.68951 -4.83428,-4.52164 -4.70451,-8.7341 0.13854,-4.49706 1.70744,-7.25106 5.2169,-9.19975 3.55123,-2.00312 5.96372,-2.19505 10.6195,-0.9925 z m 48.08021,36.81625 c 4.72967,5.31361 9.91603,15.33249 11.54534,22.33513 1.7979,8.03974 1.65701,15.21728 -0.48697,21.01528 -4.90105,13.26885 -18.25361,15.74509 -25.3735,4.69323 -5.62702,-8.73455 -5.17838,-21.99556 1.23544,-36.19682 2.02007,-4.37985 9.19361,-14.59839 10.23446,-14.53356 0.2402,0.0145 1.52622,1.23575 2.84523,2.68674 z"
       id="path189"
       style="fill:#000000;stroke:none;stroke-width:0.0477833" /></g></svg>
