<?xml version="1.0" encoding="UTF-8" standalone="no"?>
<!-- Created with Inkscape (http://www.inkscape.org/) -->

<svg
   width="600mm"
   height="512mm"
   viewBox="0 0 600 512"
   version="1.1"
   id="svg5"
   xml:space="preserve"
   inkscape:version="1.2.2 (b0a8486541, 2022-12-01)"
   sodipodi:docname="logo2.svg"
   xmlns:inkscape="http://www.inkscape.org/namespaces/inkscape"
   xmlns:sodipodi="http://sodipodi.sourceforge.net/DTD/sodipodi-0.dtd"
   xmlns="http://www.w3.org/2000/svg"
   xmlns:svg="http://www.w3.org/2000/svg"><sodipodi:namedview
     id="namedview7"
     pagecolor="#505050"
     bordercolor="#eeeeee"
     borderopacity="1"
     inkscape:showpageshadow="0"
     inkscape:pageopacity="0"
     inkscape:pagecheckerboard="0"
     inkscape:deskcolor="#505050"
     inkscape:document-units="mm"
     showgrid="false"
     inkscape:zoom="0.28566719"
     inkscape:cx="705.36627"
     inkscape:cy="792.88069"
     inkscape:window-width="1920"
     inkscape:window-height="925"
     inkscape:window-x="0"
     inkscape:window-y="35"
     inkscape:window-maximized="1"
     inkscape:current-layer="layer1" /><defs
     id="defs2" /><g
     inkscape:label="Layer 1"
     inkscape:groupmode="layer"
     id="layer1"><path
       d="m 571.42616,47.440862 c -8.3258,1.396494 -15.8597,10.15013 -22.6017,26.26093 -1.30613,3.108808 -2.5099,6.030473 -2.71451,6.404909 -0.20805,0.470493 -0.77435,-1.099144 -1.21796,-3.432509 -1.10214,-5.35172 -4.78652,-13.436753 -8.30689,-18.047741 -13.71308,-18.039793 -36.10455,-7.170071 -41.3756,20.087393 -1.35355,7.149451 -1.39712,16.484727 -0.022,23.583426 3.76034,19.448 17.02236,27.26043 24.13636,14.15313 1.22436,-2.15046 2.23033,-4.88985 2.27117,-6.04284 0.068,-1.92175 -0.16724,-2.03024 -3.50994,-2.20389 -2.6741,-0.13874 -4.08967,-0.69378 -5.42345,-2.20704 -5.15427,-5.75477 -5.99454,-21.20053 -1.6943,-31.854914 2.88501,-7.166134 7.29166,-10.017627 12.38762,-8.020164 3.68041,1.44263 6.58332,4.577572 9.29883,10.301936 7.57338,15.795541 5.44716,43.408952 -4.8248,63.283172 -6.52392,12.65664 -12.54032,17.73483 -20.55929,17.22199 -11.84264,-0.61491 -20.20682,-10.291 -30.2367,-35.07043 C 470.65687,106.02859 461.44599,86.489939 456.8373,78.838247 450.59802,68.599024 441.52785,59.94545 432.49556,55.625654 415.98297,47.740656 397.26097,50.907376 377.33925,64.985789 l -5.64124,3.942532 -5.32138,-5.089625 c -10.41411,-9.878518 -17.7102,-13.241728 -28.05873,-12.816693 -6.99565,0.310541 -13.5887,2.759582 -19.63576,7.354869 -4.4714,3.329431 -13.14115,11.735275 -16.19695,15.619601 l -2.25438,2.867056 -4.06264,-4.157851 c -6.09567,-6.188744 -13.15665,-12.138837 -18.11972,-15.188281 -6.50826,-3.99612 -17.13655,-5.125832 -24.30941,-2.514286 -6.83176,2.436754 -14.19199,7.637635 -20.21506,14.255721 l -4.93165,5.519602 -4.5299,-3.123226 c -11.67603,-8.018847 -19.74975,-11.03739 -31.97434,-11.672429 -10.21899,-0.530967 -15.13396,0.46525 -23.37084,4.75423 -5.11613,2.622116 -14.83981,11.06947 -19.79528,17.261699 -5.85586,7.300574 -8.51937,12.264149 -19.30607,35.865942 -12.60093,27.55056 -19.51033,40.28341 -24.92293,45.87431 -5.214776,5.40862 -9.952248,8.14671 -14.751301,8.57121 -8.492981,0.71397 -14.520431,-4.70112 -20.773628,-18.59909 -4.482667,-9.85921 -6.328499,-17.17487 -6.963753,-27.60432 -1.024623,-16.99557 3.698092,-34.173901 11.310576,-41.094447 5.682072,-5.095537 10.958775,-4.147616 14.547527,2.584754 2.466428,4.652524 3.428707,9.900705 3.159842,17.491553 -0.445818,12.58731 -4.637172,20.16691 -10.988221,19.83699 -3.247153,-0.16861 -3.489204,1.2627 -1.050012,6.68389 2.439181,5.42121 6.136743,7.7311 10.393407,6.412 6.047291,-1.8999 11.227843,-9.04305 14.129673,-19.38505 1.03661,-3.60414 1.3161,-6.09243 1.61228,-13.10431 0.26218,-7.39868 0.14259,-9.426397 -0.78563,-14.287791 C 102.51023,80.839075 97.219299,72.189274 90.376803,68.175822 86.67585,65.962033 78.93998,65.560166 74.669729,67.263621 66.804526,70.51302 60.062013,79.885386 56.461125,92.40507 l -1.970922,7.021081 -2.514271,-6.002666 C 48.939661,85.949736 43.628208,76.528799 40.636608,73.196715 33.408371,65.216379 22.340153,65.700292 15.911355,74.318841 c -2.360077,3.150318 -5.098428,10.227816 -6.0052845,15.571468 -1.51031,8.874048 -0.04175,18.769121 3.4570885,23.956621 3.639801,5.29108 7.770444,6.1795 11.815442,2.73163 1.974761,-1.72644 2.02922,-3.2638 0.463085,-10.37237 -0.658549,-3.01838 -1.187527,-6.992641 -1.126278,-8.722257 0.221065,-6.245617 3.826142,-10.775228 7.407646,-9.241473 4.901592,2.083607 8.524604,10.550485 17.32359,40.36789 3.630126,12.31778 7.768494,25.14325 9.177468,28.58572 5.117247,12.20244 11.01184,20.01724 18.366036,24.44232 5.38599,3.26395 15.840337,3.90336 21.768225,1.32339 8.117557,-3.62139 13.547267,-8.34503 19.897567,-17.44891 1.61318,-2.32276 3.52985,-5.1111 4.18468,-6.03974 l 1.25844,-1.7636 -0.57247,6.70867 c -1.23022,14.47186 0.29286,37.65421 3.497,53.89662 2.7229,13.6183 4.99855,20.95629 9.48121,30.81551 8.25572,18.14134 19.65923,31.15172 34.35726,38.94251 5.30415,2.87464 6.16029,3.01534 16.80903,3.56857 10.36224,0.53836 11.70614,0.41552 17.66472,-1.68142 11.24192,-4.03663 23.68067,-12.15043 35.54961,-23.08543 6.3301,-5.83205 17.46561,-17.67151 21.62644,-23.03863 l 3.20929,-4.16515 3.4522,5.18504 c 1.90692,2.89067 6.49165,9.8673 10.169,15.44908 3.7217,5.68035 6.66567,10.35765 6.56677,10.44882 -0.457,0.74635 -16.52696,26.2877 -17.49212,27.87404 l -1.11858,1.86714 -5.05178,-3.2466 c -12.72317,-8.1695 -23.56985,-9.88816 -33.6827,-5.31151 -7.34328,3.37278 -14.10637,11.97393 -16.58873,21.27873 -1.97434,7.11723 -2.23616,17.21127 -0.6461,24.99495 1.33421,6.90403 4.80022,14.40009 8.26593,17.85308 7.52839,7.61087 19.67427,5.06513 32.15028,-6.80098 4.69981,-4.37649 16.48325,-18.30012 17.12434,-20.19211 0.41944,-1.03709 13.91398,13.71838 16.30191,17.88554 0.0889,0.19719 -1.36065,3.29847 -3.2602,6.95412 -15.66714,30.37538 -21.37091,63.09742 -15.80897,91.11023 4.38472,22.07953 17.47669,36.04403 30.98006,32.99126 17.40872,-3.9088 28.66613,-27.2936 29.01826,-60.19734 0.22,-21.07027 -3.95973,-39.48118 -13.81544,-61.07486 -2.57564,-5.62081 -4.45883,-10.53182 -4.29517,-11.10089 0.42289,-1.1332 12.37679,-15.81807 14.50165,-17.72921 1.43581,-1.36935 1.57567,-1.2658 6.75388,5.164 17.45852,21.69984 31.68229,28.02206 42.34391,18.75706 5.67872,-4.99945 9.56642,-13.46123 10.94697,-24.07474 2.35549,-17.87888 -3.2361,-32.89767 -14.80629,-39.85213 -4.82659,-2.8498 -15.08654,-3.57534 -21.23617,-1.4882 -3.87121,1.24283 -11.77723,5.64529 -17.90621,9.85127 -2.25787,1.61544 -2.25787,1.61544 -3.79299,-0.96716 -0.8596,-1.39235 -4.74854,-7.75523 -8.68513,-14.12058 -3.93668,-6.36535 -6.98983,-12.01101 -6.82958,-12.48396 0.37173,-1.03962 10.95771,-17.62456 16.3599,-25.62254 l 3.6833,-5.39197 7.92073,8.69017 c 29.3325,32.23178 56.93419,44.44719 79.93634,35.24569 17.27546,-6.89991 32.76624,-24.19266 42.93212,-47.82666 3.91497,-9.23048 8.8424,-25.43549 10.67661,-35.35161 2.78548,-15.16114 4.28132,-34.43242 3.64928,-47.65331 -0.12645,-3.18327 -0.17451,-5.88114 -0.12285,-5.97476 0.051,-0.0936 1.32695,1.70543 2.77333,4.09089 6.23587,10.33534 14.63401,17.70254 22.58832,20.04108 14.16223,4.00863 27.9585,-4.6122 37.48349,-23.65883 4.11629,-8.16108 6.91941,-15.71651 12.86302,-34.94923 5.51056,-17.811252 8.75696,-27.076395 11.60795,-33.281685 4.66184,-10.058004 10.35096,-12.650338 13.22001,-5.85914 1.36804,3.24777 1.15706,9.205133 -0.47291,14.703744 -1.52425,5.215311 -1.42854,7.915642 0.27705,9.736966 2.02962,2.126961 6.81844,1.990715 9.19225,-0.196343 2.32602,-2.189487 5.05087,-7.534957 6.16589,-12.001394 1.17635,-4.848308 1.2576,-12.545145 0.16559,-18.185182 -2.34074,-12.250752 -9.69852,-19.275158 -18.55301,-17.809904 z M 423.56707,69.986396 c 16.62526,8.757275 30.18539,33.816314 34.48545,63.688834 2.54586,17.26715 2.42444,34.2032 -0.25868,50.52485 -6.34456,38.65705 -26.20703,68.62201 -50.09276,75.7561 -19.58128,5.81744 -40.62716,-5.09476 -61.07057,-31.66653 -3.01893,-3.91111 -5.47845,-7.40811 -5.46484,-7.79243 0.0224,-0.67262 14.5318,-23.98481 16.78956,-26.9479 0.70597,-1.02224 1.77703,-0.19636 6.52876,4.76728 6.78135,7.09068 14.93381,13.29 22.08325,16.74183 6.81856,3.33841 19.12846,4.26667 24.09787,1.73319 11.10193,-5.48786 19.10962,-18.16365 22.59757,-35.59864 1.34333,-6.86123 1.56489,-9.06376 1.6529,-16.95276 0.14595,-8.17483 -0.0353,-9.8207 -1.46458,-16.72965 -5.51065,-26.75869 -23.24801,-37.88406 -41.51223,-26.02985 -7.7866,5.08251 -20.42616,18.86537 -29.16374,31.88834 -6.3128,9.39466 -5.35094,9.25214 -10.26317,2.06596 -5.00088,-7.38327 -10.6159,-16.33867 -12.04524,-19.20456 l -1.03025,-1.97878 7.23706,-9.82801 c 26.48592,-35.974239 40.63643,-50.544995 54.65805,-56.07371 6.11205,-2.377838 15.98999,-1.672166 22.23552,1.636436 z m -77.46075,-1.136168 c 1.73958,0.860481 4.16144,2.719007 5.35878,4.032675 2.29912,2.622229 5.1749,7.873611 5.12384,9.314895 -0.015,0.38442 -3.01827,4.175058 -6.66075,8.413988 -3.59473,4.241331 -9.94512,11.997594 -14.05478,17.271074 l -7.51338,9.52482 -2.72562,-4.08839 c -1.54869,-2.19822 -5.2636,-8.07076 -8.34399,-12.94771 l -5.57063,-8.856812 2.16907,-3.160253 c 3.27744,-4.739191 11.67769,-13.640354 15.5079,-16.425523 6.42907,-4.575467 11.53509,-5.561659 16.70956,-3.078764 z m -75.10338,5.243469 c 3.68736,2.598137 13.73658,13.324087 15.58213,16.59667 l 1.21446,2.180859 -7.93954,12.101794 c -4.34835,6.6088 -8.29423,12.66092 -8.79556,13.3087 -0.80148,1.01728 -1.91006,-0.0991 -8.36751,-8.23198 -4.12072,-5.21973 -10.12786,-12.559038 -13.44008,-16.29285 -3.2645,-3.73136 -6.06847,-6.957464 -6.15718,-7.154568 -0.35476,-0.788542 2.80324,-6.207768 5.35434,-9.3482 4.64513,-5.53448 7.56132,-6.826969 13.80326,-6.117612 3.85775,0.489207 6.40912,1.391844 8.74568,2.957187 z m -67.5382,3.711183 c 9.12102,4.516875 19.13945,13.412238 28.81016,25.36995 3.708,4.71704 8.01633,10.04279 9.53088,11.85423 4.49257,5.52785 16.67406,22.2367 16.65026,22.90928 -0.0408,1.15303 -10.79734,18.49922 -16.08699,26.02175 l -2.06675,2.97307 -2.90978,-4.29047 c -9.43901,-14.44855 -21.81135,-28.47191 -29.53051,-33.39729 -17.30078,-11.29519 -35.17292,-1.05708 -42.57928,24.35674 -5.23085,18.01829 -4.2572,37.80288 2.71585,52.9897 3.32957,7.29644 8.46683,13.53161 13.76072,16.69456 4.35591,2.63285 16.29395,3.25304 21.96948,1.04505 9.06579,-3.37955 20.71319,-12.11204 30.17071,-22.49844 2.43853,-2.66497 4.10974,-3.92586 4.42704,-3.42806 0.26961,0.49531 3.80015,6.16576 7.88004,12.53851 4.02875,6.46645 7.41957,12.03334 7.54584,12.52123 0.21166,0.7811 -7.03574,10.8973 -13.08263,18.18798 -5.64444,6.734 -15.9684,15.92027 -22.37029,19.72705 -15.20488,9.2215 -29.15185,9.94088 -42.37639,2.41921 -19.78731,-11.32813 -32.99608,-35.50257 -37.28273,-68.45482 -1.16721,-8.91686 -1.18434,-9.78411 -0.67397,-25.54479 0.65344,-18.44863 1.23634,-22.75017 4.93262,-36.61261 3.03137,-11.29788 6.18918,-19.41248 11.09669,-28.30258 8.44069,-15.444964 18.60085,-25.409838 29.49147,-28.983385 4.69322,-1.488932 15.18512,-0.55884 19.97756,1.904172 z m 104.30759,42.76888 c 4.44826,6.77698 8.06765,12.64456 8.04729,13.22107 -0.0184,0.48045 -3.86064,6.34536 -8.5398,12.84071 l -8.50575,11.87986 -5.3352,-7.40066 c -2.91659,-4.09831 -6.69966,-9.39679 -8.38821,-11.69859 -2.60279,-3.50439 -2.99851,-4.48758 -2.43581,-5.51728 0.76393,-1.30804 16.73168,-25.31446 16.97382,-25.39813 0.0513,-0.0935 3.73194,5.39212 8.18366,12.07302 z m 101.52203,14.70782 c 3.25069,1.42029 6.19794,4.65381 8.064,8.69756 7.0515,15.67216 4.48838,39.41235 -5.59657,51.30644 -6.84156,8.11573 -15.15727,7.87628 -26.86062,-0.72157 -3.68057,-2.79029 -15.02599,-14.73878 -16.09037,-17.10439 -0.7096,-1.57708 12.04887,-21.41837 20.25801,-31.67716 8.30461,-10.25381 14.00736,-13.23051 20.22555,-10.50088 z m -206.38357,10.84148 c 3.94664,3.38173 8.69508,9.78925 18.44451,24.92778 l 7.38882,11.55037 -4.64855,5.63061 c -13.29084,15.9631 -25.93779,23.19971 -34.32195,19.4912 -8.90607,-3.83187 -14.49758,-17.50295 -13.91223,-34.02987 0.51052,-14.41295 5.3189,-25.90732 12.69627,-30.24096 3.32203,-1.94526 10.40307,-0.61473 14.35313,2.67087 z m 134.7886,19.61269 8.70219,13.64015 -3.90497,6.24681 c -2.13151,3.45097 -5.92732,9.31839 -8.39994,12.94422 l -4.4472,6.69992 -4.40052,-6.7745 c -10.39418,-15.84585 -14.06473,-21.61981 -14.09206,-22.19881 0.009,-0.28805 1.02311,-1.87211 2.27817,-3.53965 1.25506,-1.66754 5.03728,-7.15061 8.42388,-12.26916 3.33881,-5.12106 6.3503,-9.10392 6.63,-8.89685 0.27626,0.30314 4.40732,6.58233 9.21045,14.14787 z m -60.12668,-0.23724 c 4.23675,5.99586 7.63781,11.27453 7.57982,11.56027 -0.17393,0.85736 -16.9396,27.13266 -18.28678,28.69918 -1.047,1.19699 -1.46319,0.79037 -5.42021,-4.9985 -3.45563,-5.08895 -10.34302,-15.93946 -11.24019,-17.62254 -0.13647,-0.19977 0.22492,-0.95097 0.77415,-1.59628 0.50472,-0.74386 4.70297,-7.16793 9.31388,-14.43693 4.60753,-7.17295 8.63869,-12.93185 8.96954,-12.81838 0.33092,0.11315 4.07641,5.12115 8.30979,11.21318 z m 30.55102,42.40275 c 5.13395,7.67896 9.25141,14.34253 9.19344,14.62833 -0.015,0.38442 -4.55975,7.17535 -10.06085,15.26452 l -9.94489,14.69301 -5.27722,-7.68648 c -2.90982,-4.29046 -7.41607,-10.78171 -10.01204,-14.47828 -2.72901,-3.99227 -4.48244,-7.16384 -4.22667,-7.63185 2.71123,-4.9611 19.80114,-29.58308 20.31621,-29.26755 0.37522,0.21192 4.88146,6.70322 10.01202,14.4783 z m -2.05289,91.72861 c 3.76947,5.68281 6.79185,10.84555 6.77486,11.32601 -0.0374,1.05691 -15.00621,19.82073 -16.26819,20.33276 -0.53547,0.26078 -10.41426,-11.22622 -16.03593,-18.64172 -0.50486,-0.60384 1.43566,-4.06478 7.84731,-13.55056 8.28398,-12.37269 8.48523,-12.65101 9.67912,-11.24131 0.64131,0.80341 4.28115,6.09448 8.00283,11.77482 z m 58.51366,3.90614 c 1.2075,1.02534 2.84151,3.51682 3.63641,5.38712 1.41578,3.2502 1.4908,3.83173 1.26963,10.07735 -0.20088,5.6691 -0.3883,6.91075 -1.51712,9.06621 -4.52212,8.81379 -13.94631,8.80555 -22.29001,-0.098 -3.96374,-4.24897 -9.9062,-13.41395 -9.47994,-14.64317 0.53199,-1.5126 6.89961,-7.05388 10.85944,-9.44727 6.99194,-4.25743 13.26448,-4.41287 17.52158,-0.34115 z m -122.2622,2.21594 c 5.24945,1.71666 15.35648,9.46148 14.9541,11.36584 -0.11258,0.47547 -2.09737,3.83785 -4.47444,7.46863 -8.44765,12.94174 -17.62251,18.04841 -24.20921,13.56693 -3.92272,-2.70669 -5.66946,-7.41805 -5.41761,-14.52844 0.26886,-7.59085 2.20587,-12.3034 6.44186,-15.74131 4.28717,-3.53158 7.17277,-3.95926 12.7053,-2.13165 z m 56.57391,60.02313 c 5.5263,8.75827 11.48981,25.43286 13.2746,37.17346 1.96234,13.48255 1.62903,25.59439 -1.06479,35.46589 -6.15822,22.59074 -22.16162,27.34264 -30.41052,9.00914 -6.51931,-14.48943 -5.67858,-36.87506 2.30771,-61.10364 2.51326,-7.47423 11.3153,-25.01821 12.55685,-24.95371 0.28652,0.0172 1.79425,2.01844 3.33615,4.40886 z"
       id="path2"
       style="fill:#000000;stroke:none;stroke-width:0.0677998"
       inkscape:transform-center-x="-5.2322152"
       inkscape:transform-center-y="10.913977" /></g></svg>
