<?xml version="1.0" encoding="UTF-8" standalone="no"?>
<!-- Created with Inkscape (http://www.inkscape.org/) -->

<svg
   width="512mm"
   height="512mm"
   viewBox="0 0 512 512"
   version="1.1"
   id="svg5"
   xml:space="preserve"
   inkscape:version="1.2.2 (b0a8486541, 2022-12-01)"
   sodipodi:docname="logo.svg"
   xmlns:inkscape="http://www.inkscape.org/namespaces/inkscape"
   xmlns:sodipodi="http://sodipodi.sourceforge.net/DTD/sodipodi-0.dtd"
   xmlns="http://www.w3.org/2000/svg"
   xmlns:svg="http://www.w3.org/2000/svg"><sodipodi:namedview
     id="namedview7"
     pagecolor="#505050"
     bordercolor="#eeeeee"
     borderopacity="1"
     inkscape:showpageshadow="0"
     inkscape:pageopacity="0"
     inkscape:pagecheckerboard="0"
     inkscape:deskcolor="#505050"
     inkscape:document-units="mm"
     showgrid="false"
     inkscape:zoom="0.28566719"
     inkscape:cx="705.36627"
     inkscape:cy="792.88069"
     inkscape:window-width="1920"
     inkscape:window-height="925"
     inkscape:window-x="0"
     inkscape:window-y="35"
     inkscape:window-maximized="1"
     inkscape:current-layer="layer1" /><defs
     id="defs2" /><g
     inkscape:label="Layer 1"
     inkscape:groupmode="layer"
     id="layer1"><path
       d="m 489.01544,99.208445 c -7.08039,1.124665 -13.47513,8.106295 -19.18423,20.944905 -1.10604,2.4774 -2.12531,4.80563 -2.29876,5.10409 -0.17622,0.37495 -0.66053,-0.87402 -1.0417,-2.7313 -0.9463,-4.25966 -4.09374,-10.6918 -7.09599,-14.35796 -11.69496,-14.343386 -30.72542,-5.65415 -35.16503,16.05782 -1.1398,5.69486 -1.16165,13.1282 0.0197,18.77849 3.23057,15.47986 14.52516,21.68033 20.5556,11.23271 1.03805,-1.71419 1.88935,-3.89698 1.92221,-4.81512 0.0547,-1.5303 -0.14558,-1.61633 -2.98946,-1.7495 -2.27505,-0.1064 -3.48017,-0.5462 -4.61726,-1.7491 -4.39406,-4.57441 -5.13404,-16.87192 -1.49323,-25.3621 2.44257,-5.71048 6.18661,-7.98772 10.52494,-6.405 3.13324,1.14309 5.60782,3.63488 7.9272,8.1888 6.46833,12.56575 4.70457,34.55635 -4.00129,50.39699 -5.5292,10.08788 -10.63901,14.1406 -17.4615,13.74448 -10.07536,-0.47157 -17.20645,-8.16346 -25.77914,-27.87894 -5.44992,-12.59472 -13.31734,-28.13845 -17.25037,-34.22413 -5.32437,-8.14353 -13.05437,-15.02016 -20.74508,-18.44605 -14.05992,-6.253296 -29.98136,-3.70322 -46.90561,7.53719 l -4.79252,3.14787 -4.53513,-4.04453 c -8.87526,-7.84995 -15.08745,-10.5168 -23.89013,-10.16258 -5.95062,0.25794 -11.55526,2.21806 -16.69194,5.88631 -3.79834,2.6579 -11.15991,9.36433 -13.75311,12.46191 l -1.91311,2.28635 -3.46281,-3.30452 c -5.19561,-4.91853 -11.212,-9.64556 -15.439,-12.06613 -5.54301,-3.17201 -14.58623,-4.05534 -20.68384,-1.96494 -5.80773,1.9507 -12.06053,6.10316 -17.1735,11.38204 l -4.18631,4.40254 -3.85862,-2.47998 c -9.94574,-6.36725 -16.81888,-8.75847 -27.21924,-9.24548 -8.69404,-0.4072 -12.87353,0.39354 -19.87356,3.82123 -4.34797,2.09568 -12.60603,8.83677 -16.8115,13.77493 -4.96962,5.82206 -7.22736,9.7784 -16.36502,28.58793 -10.67458,21.95653 -16.531584,32.10568 -21.126911,36.56573 -4.427343,4.3146 -8.452996,6.50204 -12.534806,6.84738 -7.223721,0.58145 -12.36003,-3.72115 -17.702201,-14.77797 -3.82942,-7.84362 -5.411569,-13.66595 -5.968967,-21.96949 -0.899329,-13.53127 3.090242,-27.21683 9.554821,-32.73897 4.825374,-4.06602 9.315751,-3.31928 12.379633,2.03594 2.105744,3.70084 2.932895,7.87827 2.716543,13.92295 -0.358742,10.0234 -3.91193,16.0651 -9.315234,15.81209 -2.762592,-0.12931 -2.96617,1.01075 -0.882343,5.32369 2.083817,4.31294 5.233056,6.14657 8.852004,5.08974 5.141267,-1.52203 9.536666,-7.21771 11.988367,-15.45702 0.875963,-2.8714 1.10967,-4.85314 1.350198,-10.43685 0.210975,-5.89165 0.105941,-7.50605 -0.691609,-11.37555 -1.738322,-8.28218 -6.253353,-15.16157 -12.080727,-18.34687 -3.151967,-1.7571 -9.733441,-2.06529 -13.363321,-0.70239 -6.685546,2.59935 -12.406056,10.07244 -15.448891,20.04681 l -1.665201,5.59359 -2.148644,-4.77583 c -2.5951,-5.94639 -7.128845,-13.43977 -9.679194,-16.0884 -6.161985,-6.34337 -15.576807,-5.94117 -21.031671,0.93121 -2.002559,2.51206 -4.320511,8.15174 -5.083256,12.40804 -1.270345,7.06832 -0.0049,14.9451 2.979941,19.07034 3.10496,4.20751 6.620301,4.90862 10.055717,2.15706 1.677095,-1.3777 1.720917,-2.60191 0.377041,-8.25977 -0.565139,-2.4024 -1.02161,-5.56613 -0.972324,-6.94344 0.17788,-4.97345 3.237298,-8.58568 6.286544,-7.36988 4.173125,1.65161 7.268977,8.38789 14.802761,32.11677 3.108179,9.80258 6.649541,20.00863 7.853749,22.74756 4.373068,9.70847 9.400267,15.92206 15.663611,19.43435 4.587121,2.59073 13.481559,3.08391 18.520144,1.02055 6.899616,-2.89593 11.510915,-6.66544 16.898206,-13.92415 1.36853,-1.85197 2.99448,-4.07513 3.55002,-4.81556 l 1.06767,-1.4062 -0.47606,5.34269 c -1.02296,11.52519 0.31048,29.98196 3.06268,42.9102 2.33853,10.83951 4.28635,16.67895 8.11577,24.52259 7.05261,14.43256 16.77465,24.77477 29.2908,30.95582 4.51686,2.28086 5.2454,2.39159 14.30506,2.81586 8.81592,0.41287 9.95896,0.313 15.02445,-1.36578 9.55679,-3.23134 20.12508,-9.71098 30.20403,-18.43614 5.37545,-4.65347 14.82901,-14.0977 18.35984,-18.37765 l 2.72332,-3.32142 2.9452,4.12336 c 1.6269,2.2988 5.53845,7.847 8.67583,12.28592 3.17526,4.51734 5.68729,8.23718 5.6033,8.30992 -0.38755,0.59498 -14.01647,20.95696 -14.83494,22.22156 l -0.94852,1.48843 -4.30278,-2.57742 c -10.83677,-6.48561 -20.06672,-7.83756 -28.66215,-4.17795 -6.24136,2.6968 -11.98063,9.55583 -14.07718,16.96863 -1.66795,5.67014 -1.87423,13.70799 -0.5089,19.90337 1.14625,5.49534 4.10696,11.45884 7.06083,14.20302 6.41671,6.04872 16.74493,4.00314 27.3388,-5.46436 3.99094,-3.49197 13.9923,-14.59673 14.53458,-16.10421 0.35513,-0.82643 11.85882,10.90212 13.897,14.21661 0.076,0.15688 -1.15212,2.6285 -2.76208,5.54223 -13.27837,24.21049 -18.07718,50.27432 -13.30006,72.57122 3.766,17.57428 14.92596,28.67364 26.40815,26.22225 14.80304,-3.13896 24.34149,-21.77642 24.58742,-47.97677 0.15282,-16.77768 -3.43283,-31.43111 -11.85216,-48.61018 -2.20022,-4.47168 -3.81023,-8.37923 -3.67193,-8.8326 0.3579,-0.90297 10.50302,-12.61412 12.3075,-14.13912 1.2192,-1.09254 1.33834,-1.0103 5.75386,4.10157 14.88713,17.25201 26.99744,22.26442 36.05206,14.87085 4.82268,-3.98951 8.11612,-10.73318 9.27324,-19.18637 1.97466,-14.23976 -2.80652,-26.19004 -12.66048,-31.70992 -4.11057,-2.26181 -12.83978,-2.82388 -18.0678,-1.15261 -3.29117,0.99552 -10.00957,4.51306 -15.21657,7.87145 -1.91811,1.28975 -1.91811,1.28975 -3.22822,-0.76432 -0.73353,-1.10736 -4.05217,-6.16791 -7.41136,-11.23036 -3.35926,-5.06244 -5.96574,-9.55318 -5.83018,-9.93001 0.31452,-0.82837 9.29288,-14.05039 13.87543,-20.42707 l 3.12455,-4.29901 6.75224,6.90753 c 25.00536,25.62002 48.50571,35.30452 68.05839,27.94269 14.6848,-5.52045 27.83446,-19.31354 36.44395,-38.14777 3.31538,-7.3558 7.48068,-20.26666 9.02487,-28.16522 2.34487,-12.07641 3.58597,-27.42357 3.02675,-37.94982 -0.11275,-2.53451 -0.15803,-4.68263 -0.11424,-4.75726 0.0432,-0.0746 1.13161,1.35594 2.36591,3.25317 5.32163,8.22007 12.47783,14.07344 19.24829,15.92339 12.05418,3.1703 23.77647,-3.71513 31.84824,-18.89566 3.48838,-6.50459 5.86066,-12.52493 10.88548,-27.84817 4.65875,-14.19073 7.40533,-21.57311 9.82053,-26.51846 3.94938,-8.01586 8.78483,-10.0887 11.23656,-4.68554 1.16907,2.58397 0.9993,7.32788 -0.37834,11.70867 -1.28816,4.15505 -1.20234,6.30506 0.25155,7.7527 1.73004,1.69051 5.80361,1.57472 7.81943,-0.17036 1.97515,-1.74694 4.28444,-6.00746 5.22569,-9.56559 0.99281,-3.86229 1.04939,-9.99107 0.11124,-14.48032 -2.0112,-9.75117 -8.28183,-15.333176 -15.81186,-14.152953 z M 363.27009,117.38598 c 14.15719,6.94768 25.73347,26.88042 29.44016,50.66005 2.19387,13.74519 2.11818,27.23081 -0.13773,40.23112 -5.33425,30.79061 -22.18221,54.68069 -42.48991,60.39768 -16.64811,4.66204 -34.56938,-3.99477 -52.00366,-25.12153 -2.57454,-3.10964 -4.67253,-5.8904 -4.66157,-6.19644 0.0179,-0.53561 12.32295,-19.12022 14.23878,-21.48304 0.59889,-0.81504 1.51138,-0.15906 5.56171,3.78602 5.78037,5.63565 12.72568,10.55947 18.81326,13.29711 5.80591,2.64783 16.27931,3.36819 20.50261,1.34331 9.43535,-4.38668 16.22675,-14.49207 19.16549,-28.38011 1.13158,-5.46535 1.31647,-7.21946 1.37849,-13.50127 0.11083,-6.50948 -0.046,-7.81974 -1.27316,-13.31885 -4.73146,-21.29838 -19.83856,-30.12997 -35.35641,-20.66312 -6.61569,4.05885 -17.34557,15.05282 -24.75731,25.43577 -5.35492,7.49019 -4.53691,7.37523 -8.7274,1.66069 -4.26623,-5.87135 -9.05745,-12.99358 -10.27805,-15.27339 l -0.87965,-1.57404 6.14048,-7.83665 c 22.47266,-28.68512 34.4866,-40.30876 46.40563,-44.73242 5.19558,-1.90269 13.59978,-1.35586 18.91818,1.26911 z m -65.89686,-0.78654 c 1.48125,0.68251 3.54452,2.15868 4.56523,3.20287 1.9601,2.08446 4.41506,6.26152 4.37397,7.40923 -0.0122,0.30612 -2.56081,3.32902 -5.65251,6.70985 -3.05109,3.38267 -8.44066,9.56833 -11.92811,13.77364 l -6.37603,7.59566 -2.32531,-3.25125 c -1.32104,-1.74799 -4.49084,-6.41837 -7.11924,-10.29697 l -4.7533,-7.0438 1.84005,-2.51968 c 2.78036,-3.77861 9.91185,-10.87903 13.16563,-13.10258 5.46168,-3.65305 9.80371,-4.4461 14.20962,-2.47697 z m -63.88107,4.28969 c 3.14103,2.06316 11.70727,10.58844 13.28259,13.19144 l 1.03668,1.73467 -6.73436,9.64825 c -3.68832,5.26892 -7.03518,10.09398 -7.4606,10.61055 -0.68015,0.81123 -1.62503,-0.076 -7.13156,-6.54201 -3.51395,-4.14996 -8.63612,-9.98477 -11.45987,-12.95279 -2.78316,-2.96614 -5.17372,-5.53067 -5.24951,-5.68748 -0.30307,-0.62734 2.37458,-4.94725 4.53965,-7.45173 3.94254,-4.41395 6.42121,-5.44755 11.73231,-4.89224 3.28254,0.38365 5.45444,1.09849 7.44467,2.34134 z m -57.44795,3.05806 c 7.76651,3.58268 16.30357,10.65039 24.54983,20.15705 3.16203,3.75031 6.83576,7.98441 8.12712,9.42447 3.83079,4.39473 14.22068,17.68068 14.20152,18.21626 -0.0328,0.91817 -9.15503,14.74659 -13.64262,20.74452 l -1.75331,2.37048 -2.48232,-3.41188 c -8.0532,-11.49035 -18.60106,-22.63767 -25.17569,-26.54776 -14.73599,-8.96748 -29.92293,-0.78806 -36.18203,19.45915 -4.42047,14.35516 -3.55996,30.10728 2.39668,42.18924 2.84432,5.80476 7.22469,10.76172 11.7333,13.27216 3.70981,2.08979 13.86638,2.56541 18.69089,0.79863 7.70666,-2.70482 17.60075,-9.67588 25.62923,-17.96055 2.07009,-2.12571 3.48972,-3.13225 3.76045,-2.73636 0.23016,0.39398 3.24279,4.90373 6.72389,9.97185 3.43775,5.1428 6.33136,9.57031 6.43957,9.9586 0.18133,0.62163 -5.96747,8.68777 -11.09962,14.50225 -4.79069,5.3706 -13.55819,12.70097 -18.99801,15.7419 -12.9196,7.36587 -24.78296,7.95995 -36.04518,1.99095 -16.8513,-8.98992 -28.12725,-28.21883 -31.82755,-54.45072 -1.00746,-7.09833 -1.02345,-7.78886 -0.61496,-20.33918 0.52581,-14.69083 1.01467,-18.11685 4.13647,-29.16055 2.56034,-9.00063 5.23343,-15.46675 9.39371,-22.55303 7.15523,-12.31103 15.78214,-20.26112 25.04084,-23.12319 3.99004,-1.19273 12.91691,-0.46814 16.99779,1.48574 z m 88.803,33.89591 c 3.79513,5.38943 6.88367,10.05601 6.86728,10.51509 -0.0149,0.38259 -3.27386,5.05842 -7.24379,10.23752 l -7.21639,9.47239 -4.55065,-5.88469 c -2.48779,-3.25885 -5.71464,-7.47204 -7.15482,-9.30228 -2.21987,-2.78643 -2.55811,-3.56869 -2.08111,-4.38945 0.64774,-1.0427 14.19221,-20.18232 14.39806,-20.24932 0.0435,-0.0745 3.18351,4.28782 6.98142,9.60074 z m 86.38763,11.55636 c 2.76764,1.12595 5.2801,3.69617 6.87413,6.91319 6.02417,12.4683 3.88244,31.37549 -4.67734,40.86161 -5.80682,6.47264 -12.88129,6.29466 -22.85121,-0.53359 -3.13556,-2.21617 -12.80646,-11.71293 -13.71577,-13.59493 -0.60622,-1.25468 10.21494,-17.07289 17.18165,-25.25404 7.04793,-8.17733 11.89435,-10.55624 17.18854,-8.39224 z m -175.55055,8.94736 c 3.36287,2.68671 7.41276,7.7815 15.73116,19.82078 l 6.30441,9.18578 -3.9453,4.49051 c -11.28036,12.73098 -22.02718,18.51247 -29.16554,15.57233 -7.58254,-3.03756 -12.36145,-13.91472 -11.89043,-27.07528 0.41081,-11.47718 4.48252,-20.63698 10.7513,-24.09892 2.82284,-1.55399 8.84878,-0.50535 12.2144,2.1048 z m 114.69513,15.41116 7.42508,10.84779 -3.31173,4.98001 c -1.80763,2.75111 -5.02712,7.42887 -7.12465,10.31973 l -3.77226,5.34164 -3.75452,-5.38753 c -8.86803,-12.60151 -11.99994,-17.19346 -12.02413,-17.65445 0.007,-0.22938 0.8673,-1.49224 1.93225,-2.82195 1.06494,-1.3297 4.2735,-5.70139 7.1461,-9.78224 2.83195,-4.08277 5.3873,-7.25874 5.62558,-7.09428 0.2355,0.24095 3.75998,5.23449 7.85828,11.25128 z m -51.14949,-0.0972 c 3.61393,4.76778 6.51577,8.96577 6.46691,9.19338 -0.14657,0.68294 -14.36612,21.63038 -15.5096,22.87979 -0.88872,0.95471 -1.24343,0.63157 -4.61906,-3.97182 -2.94795,-4.04684 -8.82466,-12.67612 -9.59062,-14.01492 -0.11642,-0.15885 0.18979,-0.75755 0.65596,-1.27223 0.42815,-0.59307 3.98909,-5.71468 7.8997,-11.5097 3.90788,-5.71853 7.32776,-10.31024 7.6094,-10.2204 0.28169,0.0896 3.4761,4.07154 7.08731,8.9159 z m 26.05851,33.71686 c 4.3799,6.10659 7.89344,11.40622 7.84459,11.63388 -0.0122,0.30612 -3.86723,5.72038 -8.53378,12.16982 l -8.43607,11.71457 -4.50179,-6.11236 c -2.48234,-3.41187 -6.32634,-8.57369 -8.54072,-11.51315 -2.32805,-3.17471 -3.82484,-5.69742 -3.60803,-6.07046 2.29834,-3.95445 16.79641,-23.58592 17.23509,-23.33547 0.31954,0.16818 4.16353,5.33004 8.54071,11.51317 z m -1.59691,73.04262 c 3.21591,4.51923 5.79543,8.62549 5.78176,9.00808 -0.0301,0.84163 -12.73332,15.80527 -13.80604,16.2149 -0.4551,0.20847 -8.87759,-8.92306 -13.67197,-14.81913 -0.43046,-0.48004 1.21468,-3.23879 6.65354,-10.80169 7.02693,-9.86446 7.19768,-10.08639 8.2156,-8.96572 0.54687,0.63874 3.65186,4.84623 6.82711,9.36356 z m 49.78329,3.02105 c 1.02888,0.81459 2.42297,2.79596 3.10223,4.28398 1.20968,2.58584 1.27445,3.04877 1.09648,8.02222 -0.16165,4.51437 -0.31906,5.50333 -1.27582,7.22134 -3.83256,7.02494 -11.84963,7.03275 -18.96203,-0.044 -3.37883,-3.37722 -8.44895,-10.66583 -8.08834,-11.64526 0.45009,-1.20523 5.85793,-5.62722 9.22262,-7.53901 5.94102,-3.40067 11.27675,-3.53401 14.90485,-0.29837 z m -104.00349,1.95093 c 4.46845,1.35889 13.079,7.51034 12.73981,9.02731 -0.095,0.37877 -1.77795,3.05911 -3.79419,5.95377 -7.16523,10.31783 -14.96186,14.39804 -20.5724,10.83968 -3.34142,-2.14923 -4.83503,-5.89802 -4.63237,-11.5601 0.21635,-6.04467 1.85646,-9.80002 5.45436,-12.54394 3.6413,-2.81858 6.09535,-3.16353 10.80479,-1.71672 z m 48.2246,47.70752 c 4.71544,6.96539 9.8157,20.23355 11.35313,29.57935 1.69131,10.73258 1.4275,20.37721 -0.84801,28.24157 -5.20192,17.99741 -18.8081,21.80555 -25.85522,7.21997 -5.56951,-11.52736 -4.89079,-29.35335 1.86358,-48.65769 2.12582,-5.95523 9.58503,-19.93817 10.64131,-19.8887 0.24377,0.0133 1.52964,1.60446 2.84521,3.5055 z"
       id="path2"
       style="fill:#000000;stroke:none;stroke-width:0.0558009"
       inkscape:transform-center-x="-218.05592"
       inkscape:transform-center-y="134.48816" /></g></svg>
