<?xml version="1.0" encoding="UTF-8" standalone="no"?>
<!-- Created with Inkscape (http://www.inkscape.org/) -->

<svg
   width="600mm"
   height="512mm"
   viewBox="0 0 600 512"
   version="1.1"
   id="svg5"
   xml:space="preserve"
   inkscape:version="1.2.2 (b0a8486541, 2022-12-01)"
   sodipodi:docname="mostafa-logo.svg"
   xmlns:inkscape="http://www.inkscape.org/namespaces/inkscape"
   xmlns:sodipodi="http://sodipodi.sourceforge.net/DTD/sodipodi-0.dtd"
   xmlns="http://www.w3.org/2000/svg"
   xmlns:svg="http://www.w3.org/2000/svg"><sodipodi:namedview
     id="namedview7"
     pagecolor="#505050"
     bordercolor="#eeeeee"
     borderopacity="1"
     inkscape:showpageshadow="0"
     inkscape:pageopacity="0"
     inkscape:pagecheckerboard="0"
     inkscape:deskcolor="#505050"
     inkscape:document-units="mm"
     showgrid="false"
     inkscape:zoom="0.28566719"
     inkscape:cx="705.36627"
     inkscape:cy="792.88069"
     inkscape:window-width="1920"
     inkscape:window-height="925"
     inkscape:window-x="0"
     inkscape:window-y="35"
     inkscape:window-maximized="1"
     inkscape:current-layer="layer1" /><defs
     id="defs2" /><g
     inkscape:label="Layer 1"
     inkscape:groupmode="layer"
     id="layer1"><path
       d="m 330.06827,43.235483 c -7.33829,2.253296 -14.13963,7.196016 -24.87861,18.026384 l -5.25014,5.37883 -4.95187,-5.015414 C 284.60666,51.01299 276.4331,45.125341 269.63178,43.380846 c -4.05696,-1.01762 -12.29018,-1.01762 -16.34712,0 -6.5627,1.744495 -16.40674,8.577073 -23.02911,16.063834 -2.92339,3.416298 -3.2217,3.561658 -4.47458,2.54404 -3.28135,-2.616732 -10.67928,-7.196014 -14.85557,-9.231235 -7.93489,-3.852428 -13.18507,-5.160794 -22.31319,-5.596903 -15.51183,-0.726874 -24.81894,3.198225 -37.64605,15.918456 -9.18778,9.158568 -12.0515,13.955898 -27.08606,45.865512 -5.19051,11.04842 -10.73897,22.53297 -12.29015,25.44045 -9.12811,17.00876 -16.287414,23.69598 -26.07182,24.35016 -6.741688,0.43611 -9.784401,-1.2357 -15.034548,-8.14097 -4.653556,-6.1057 -9.605411,-17.66294 -11.693536,-27.3303 -1.730173,-8.14095 -1.849505,-23.841342 -0.238663,-31.618852 3.221695,-15.336962 10.381017,-25.004341 17.77896,-24.204773 3.460325,0.436109 6.204736,3.198221 8.352531,8.504371 1.19323,2.98018 1.372201,4.4339 1.372201,13.156342 0,9.08589 -0.119227,10.10352 -1.551181,13.883232 -1.909154,4.94272 -4.116611,6.97796 -8.173551,7.63215 -2.804049,0.4361 -3.102351,0.65417 -3.102351,2.32598 0,2.54404 2.625068,7.70482 4.892184,9.66736 2.505749,2.1806 6.980332,2.25329 10.321335,0.14546 13.304399,-8.4317 17.182339,-40.995472 7.039993,-59.021863 C 92.677433,58.790579 88.560843,54.792788 84.14592,52.757568 79.134415,50.431581 71.259166,50.867689 66.545963,53.702497 60.460537,57.33685 53.181904,68.966766 50.556826,79.288316 c -0.417613,1.59913 -0.954567,3.198242 -1.193209,3.488992 -0.238642,0.36344 -1.670512,-2.253302 -3.221689,-5.669602 C 37.789397,57.991034 31.286352,51.013072 21.859921,51.158455 13.865361,51.303921 7.8992656,57.700267 4.6179094,69.548246 c -1.670492,5.88766 -1.7898208,15.555042 -0.2386406,21.442692 1.9091514,7.48676 7.2189712,12.647542 11.7531982,11.629922 4.653559,-1.09032 5.548478,-3.997802 3.698991,-12.574842 -1.252891,-5.96035 -1.133562,-11.702632 0.298307,-14.610112 3.639308,-7.268712 9.486076,-3.12553 14.676583,10.394242 1.372203,3.63435 4.713206,13.81054 7.338299,22.532992 10.02303,32.92721 12.409458,39.25099 17.957937,47.68268 7.457615,11.33916 14.079973,15.40965 25.057573,15.48232 11.991862,0.0728 20.284723,-5.52421 31.202673,-21.00654 l 3.57964,-5.0154 -0.41763,8.79512 c -0.77557,17.08145 1.61087,44.04833 5.30984,59.45798 0.83524,3.56166 2.74439,9.95813 4.23594,14.17398 8.29286,23.98672 20.46368,40.19592 38.12332,50.59016 5.9661,3.48899 9.24745,4.36122 20.28473,5.0881 10.26166,0.72687 17.89827,-1.30836 29.71114,-7.9229 13.4237,-7.55944 25.41555,-18.09906 43.31383,-38.16067 l 4.71322,-5.23346 4.35524,6.68719 c 2.38644,3.70704 6.861,10.61231 9.90371,15.26429 3.10237,4.72464 5.72746,9.01318 5.90643,9.52198 0.11924,0.50882 -1.25287,3.4163 -3.16203,6.39647 -1.90914,2.98017 -5.84678,9.23125 -8.77015,13.88321 -2.92338,4.72467 -5.60814,8.9405 -6.02575,9.30394 -0.53695,0.58149 -1.78984,0 -4.35526,-1.88985 -13.72202,-9.95813 -28.04064,-11.7753 -38.89892,-5.01542 -9.42643,5.88766 -15.21354,18.53519 -15.09421,33.0726 0.0597,12.06604 2.80407,21.95149 7.99455,28.42063 3.81831,4.79733 5.9661,5.96033 11.57423,6.32377 10.20202,0.5815 18.67387,-5.16078 34.90164,-23.76866 3.63934,-4.14316 5.96609,-6.32376 6.44337,-5.96033 1.78986,1.23568 14.3783,16.2092 14.73625,17.59025 0.29831,1.01763 -0.65626,3.63436 -3.22168,8.86783 -8.65082,17.80831 -14.07997,35.54394 -16.4664,54.00645 -1.84949,13.73786 -0.65628,33.50871 2.62508,44.92057 3.22168,11.04844 10.14234,21.44268 17.063,25.58583 3.2217,1.88987 4.11662,2.10794 9.54578,2.03525 5.19048,0 6.44336,-0.29075 9.54573,-1.96256 12.29014,-6.90527 19.68811,-21.87878 22.61148,-45.79282 2.38645,-19.48013 0.0597,-40.19591 -6.68201,-59.74872 -0.95459,-2.83481 -3.75863,-9.95813 -6.26441,-15.91847 -2.5654,-6.03301 -4.59389,-11.41186 -4.59389,-12.13874 0,-1.30836 14.55726,-18.82592 15.63116,-18.82592 0.35798,0 4.05696,3.99779 8.17357,8.9405 12.29014,14.61009 21.53758,21.00654 30.48672,21.15192 5.78712,0.0728 9.54577,-1.88985 13.66234,-7.12333 5.60815,-7.34139 7.99457,-15.55502 8.05424,-28.0572 0.0596,-6.90525 -0.17899,-9.23123 -1.31254,-13.15633 -4.83253,-17.08146 -17.18234,-25.94927 -32.27657,-23.11449 -5.25015,0.94493 -9.90371,2.90748 -18.19658,7.77752 l -5.90644,3.41628 -1.07388,-1.81716 c -9.90371,-16.49996 -14.79591,-24.7136 -15.5715,-26.31271 l -1.01425,-1.88986 10.20203,-15.77308 10.26168,-15.7004 3.57965,4.28854 c 17.36134,20.42506 35.67724,35.2532 51.4874,41.50428 8.47183,3.34361 11.75318,3.99779 20.16537,3.99779 9.24746,0 14.13965,-1.45375 23.26778,-6.75988 30.36741,-17.66295 49.1606,-64.18265 49.27991,-121.67807 0.0597,-11.2665 0.0597,-11.70263 1.01424,-9.95814 4.47457,7.99558 11.69355,16.28189 17.48065,19.98894 14.67659,9.37661 30.24811,4.94271 41.40468,-11.92069 6.14508,-9.30392 9.54577,-17.881 19.74777,-49.49984 9.72473,-30.455864 15.7505,-39.905176 21.5376,-33.872164 1.43187,1.52644 1.67052,2.32598 1.84948,6.83258 0.179,3.27091 -0.0597,6.46916 -0.71593,9.085892 -2.02847,8.57705 -0.59661,12.13872 4.95188,12.13872 3.99726,0 6.682,-2.47135 9.00878,-8.21362 3.63932,-9.013202 3.63932,-20.061631 0.0596,-29.365574 -5.96609,-15.264267 -20.28471,-16.863379 -30.54638,-3.343587 -3.699,4.870028 -8.05422,12.64753 -10.50032,18.680539 -0.89493,2.25333 -1.78985,4.07049 -1.96882,4.07049 -0.17898,0 -1.07389,-2.61673 -1.96882,-5.88765 -6.14508,-21.151915 -20.58301,-30.601226 -34.24536,-22.460282 -7.21898,4.361208 -12.17084,12.138735 -15.21354,23.986702 -1.78984,7.05065 -1.90915,19.770882 -0.23863,26.458082 3.81827,15.627712 11.93217,23.623272 19.56878,19.480122 3.10236,-1.6718 6.32404,-6.68721 6.86101,-10.61231 0.29829,-2.25329 0.17896,-2.47135 -1.61087,-2.90748 -1.07388,-0.21805 -2.5654,-0.43611 -3.28135,-0.43611 -1.84948,0 -4.83253,-3.12555 -6.32404,-6.614522 -2.68476,-6.46914 -2.50577,-19.044002 0.41762,-26.748812 1.78984,-4.870058 2.86373,-6.323784 5.72746,-8.140969 7.63659,-4.724646 16.40674,4.215858 19.86707,20.279671 4.17627,19.770892 -1.49151,46.665082 -12.94642,61.638612 -5.07118,6.54183 -7.87522,8.43168 -13.30437,8.86781 -5.96611,0.43613 -9.72475,-0.79957 -14.97489,-5.08809 -6.08543,-4.94271 -10.50033,-12.3568 -18.49492,-31.03737 -8.29286,-19.552792 -17.54028,-39.178294 -21.11995,-45.138634 -7.9349,-13.083663 -19.74775,-23.041773 -31.9186,-26.966872 -7.27863,-2.325987 -18.73353,-2.180603 -27.26503,0.290747 -7.81559,2.325986 -15.15389,5.887648 -22.19389,10.757676 l -5.30981,3.707044 -1.55118,-1.526441 C 361.44994,49.268577 353.87299,44.107803 347.42962,42.654075 c -5.13084,-1.163004 -12.52881,-0.872259 -17.36133,0.581491 z m 17.89829,17.808309 c 3.04271,1.671807 7.39796,6.905272 9.06845,10.903064 l 0.89493,2.03524 -14.37829,17.008762 c -7.87524,9.376612 -14.4976,17.154122 -14.73625,17.226812 -0.23864,0.0728 -4.11661,-5.74226 -8.65085,-12.865602 l -8.23319,-13.01097 1.78981,-2.834802 c 1.84949,-2.76211 10.2617,-11.775292 14.19932,-15.118892 6.14508,-5.23347 14.37828,-6.614528 20.04607,-3.343612 z m -78.8121,1.817186 c 6.4434,3.925099 18.91253,18.46249 17.77897,20.78848 -0.23865,0.43613 -4.11661,6.32377 -8.65084,12.93831 -6.80134,9.958112 -8.47185,11.993342 -9.24744,11.411852 -0.59661,-0.36344 -6.92066,-7.85019 -14.07998,-16.645322 -14.9749,-18.317142 -14.25897,-16.281912 -8.47185,-23.841363 4.95185,-6.541835 7.15932,-7.704818 13.72201,-7.196018 4.35524,0.290767 6.02575,0.799566 8.94913,2.544061 z m 154.46216,-0.436129 c 14.79591,6.541827 27.14572,24.931649 34.06638,50.735551 9.36677,34.96245 6.38372,73.92269 -8.05423,104.74199 -7.75591,16.49994 -20.22505,30.23779 -32.87315,36.19813 -6.38373,2.98017 -11.33558,3.9251 -18.37558,3.41631 -10.79863,-0.87227 -21.8359,-5.96035 -32.51521,-15.11891 -5.19049,-4.5066 -23.56606,-25.8039 -23.56606,-27.33033 0,-0.79955 13.36405,-22.46029 15.98913,-25.87659 0.83525,-1.09029 1.73017,-1.96254 1.90914,-1.96254 0.23865,0 2.56544,2.18062 5.13085,4.79735 9.24745,9.37662 20.40404,17.51756 26.90707,19.55281 5.54847,1.74449 12.29014,2.47134 16.70507,1.81716 12.52879,-1.88985 23.32742,-17.00876 27.44402,-38.30604 1.49152,-7.99559 1.49152,-24.7136 -0.0596,-32.20036 -5.13084,-25.1497 -20.76201,-37.36113 -38.66028,-30.09242 -6.86101,2.76211 -21.29897,16.93606 -30.78505,30.09242 -2.38645,3.4163 -5.30982,7.48676 -6.50303,9.08588 l -2.08814,2.90747 -2.7444,-3.63435 c -3.22168,-4.28852 -15.03456,-23.40521 -15.03456,-24.35014 0,-0.87224 10.85829,-15.26427 21.47794,-28.638702 17.59997,-21.951462 30.06911,-33.072576 41.40468,-36.852309 5.84678,-1.962549 14.4976,-1.52642 20.22506,1.01762 z m -224.32509,2.398684 c 7.81557,3.052841 18.85284,12.284093 29.05486,24.350145 7.39798,8.79512 25.41557,32.563782 27.98098,36.924992 l 1.25287,2.10794 -3.34099,5.66959 c -5.13086,8.64974 -14.61695,22.89641 -15.1539,22.67833 -0.23863,-0.14525 -2.68474,-3.48897 -5.42913,-7.48675 -9.48609,-13.81055 -22.07452,-27.62107 -29.11453,-31.98229 -7.99456,-4.94272 -17.12268,-5.37885 -23.92404,-1.163 -4.83253,2.98017 -8.41218,6.61452 -11.63389,11.62993 -12.29014,19.5528 -13.06573,51.31704 -1.73016,72.10551 6.26442,11.48456 14.07998,16.64535 25.29625,16.64535 10.91794,0 23.20808,-6.97796 37.94434,-21.51538 3.04271,-2.98017 5.78712,-5.37882 6.14506,-5.37882 0.35798,0 4.17629,5.74226 8.47187,12.72022 9.24743,14.97352 9.12813,12.64754 0.89491,23.40522 -9.66507,12.50217 -20.04608,22.09686 -30.48673,28.20257 -8.88949,5.16077 -11.27591,5.74228 -21.77625,5.81495 -8.23319,0 -9.72473,-0.21805 -13.4237,-1.74448 -8.77016,-3.63435 -15.63116,-9.0132 -23.14844,-18.02637 -8.17355,-9.74007 -14.49761,-23.33255 -18.49489,-39.46907 -3.57966,-14.39203 -4.23593,-21.07923 -3.81832,-40.2686 0.41764,-19.48013 1.13356,-25.51314 4.83255,-39.17831 7.15932,-26.603442 20.64269,-47.464634 35.55792,-55.09675 6.80135,-3.48899 16.58572,-3.925099 24.04336,-0.944927 z m 107.21068,44.775207 c 9.06845,13.8832 9.66506,14.97352 8.82981,16.86337 -0.8949,2.03524 -15.98911,22.9691 -16.58574,22.9691 -0.23864,0 -1.78981,-1.88986 -3.341,-4.28853 -1.61083,-2.32599 -5.30983,-7.55946 -8.23321,-11.62992 -3.57965,-5.01541 -5.13085,-7.70484 -4.8922,-8.50438 0.59661,-1.88988 16.6454,-25.00434 17.36134,-25.00434 0.35796,0 3.46032,4.28853 6.861,9.5947 z m 107.15103,21.29729 c 5.1905,3.70703 8.59117,11.41185 9.84403,22.38759 1.90916,16.57266 -4.77285,36.12546 -14.07995,41.28624 -5.72747,3.19822 -14.49761,0.94492 -22.79048,-5.88766 -5.36948,-4.36123 -14.61694,-14.31934 -15.7505,-16.86338 -0.53695,-1.163 -0.11922,-2.25331 2.50578,-6.61452 8.2332,-13.81054 19.03182,-28.42062 24.22233,-32.70916 5.54846,-4.65197 11.03727,-5.16077 16.04879,-1.59911 z m -215.37596,2.61673 c 1.37221,0.79955 3.69899,2.76209 5.19051,4.28854 2.86371,3.12553 12.88676,17.59025 19.68811,28.4933 l 4.17626,6.7599 -5.60813,6.32376 c -12.11117,13.81053 -23.2081,20.64311 -31.14301,19.18938 -6.44337,-1.163 -12.34979,-8.43169 -15.33285,-18.75325 -1.84949,-6.25109 -2.32678,-19.26207 -0.95457,-26.24003 2.02847,-10.61229 7.69626,-19.91624 13.24472,-21.8061 2.14779,-0.79956 8.23321,0.21806 10.73896,1.7445 z m 134.17744,15.33696 c 7.99457,12.57484 14.61693,23.33252 14.61693,23.76865 0,1.09032 -15.63117,24.78627 -16.70506,25.36779 -0.23865,0.0728 -1.78983,-2.03525 -3.40068,-4.72467 -1.6705,-2.68943 -5.72746,-9.15856 -9.06846,-14.39203 -3.34102,-5.16077 -6.02575,-9.88544 -6.02575,-10.39424 0,-0.50883 2.50576,-4.43393 5.54845,-8.72246 3.04272,-4.28851 6.68204,-9.52198 8.11388,-11.62991 1.37221,-2.03525 2.86375,-3.77972 3.28137,-3.77972 0.41764,0 2.08813,2.03522 3.63932,4.50659 z m -61.39111,-0.72687 c 1.96882,2.61673 11.75321,17.15414 13.48338,19.91624 0.47728,0.79956 -1.67051,4.43392 -13.00608,21.73343 -5.30983,8.14094 -5.72745,8.64973 -6.92067,7.41407 -1.96881,-1.96256 -15.39251,-22.75104 -15.39251,-23.76865 0,-0.29075 0.35796,-0.94493 0.83524,-1.38106 0.47729,-0.50882 4.71321,-6.75989 9.42643,-13.9559 4.65356,-7.12335 8.7105,-13.01099 8.88947,-13.01099 0.23865,0 1.43187,1.38105 2.68474,3.05286 z m 30.78505,42.52191 c 1.78983,2.76211 6.14508,9.4493 9.66507,14.97351 6.14508,9.52201 6.38372,10.10349 5.54846,11.62994 -1.6705,3.05284 -19.03182,28.12988 -19.5091,28.12988 -0.9546,0 -19.68813,-28.7114 -19.68813,-30.23781 0,-0.94493 19.62845,-29.36556 20.34439,-29.36556 0.23864,0 1.84947,2.1806 3.63931,4.87004 z m -1.84949,93.76624 c 1.90915,2.47137 7.27863,10.75768 12.05152,18.53521 0.89491,1.45372 1.61083,2.90748 1.61083,3.27092 0,0.36342 -3.75862,5.16076 -8.35252,10.75767 l -8.35253,10.1035 -8.05423,-9.81276 c -4.41491,-5.37884 -8.05422,-10.17618 -8.05422,-10.61231 0,-1.6718 15.5715,-24.93163 16.64539,-24.93163 0.23865,0 1.37221,1.23567 2.50576,2.6894 z m 62.58431,13.30174 c 5.42915,1.81716 8.94914,8.359 8.94914,16.49994 0,6.61452 -0.83525,9.95813 -3.40067,13.37441 -2.14779,2.90748 -4.83253,4.28854 -8.53151,4.28854 -5.1905,0 -13.96067,-7.77751 -19.56878,-17.29951 l -2.7444,-4.72464 2.08813,-2.32599 c 2.80405,-3.12556 8.82981,-7.3414 12.94643,-9.08589 3.75864,-1.52643 7.09964,-1.81718 10.26166,-0.72686 z m -118.84457,2.25329 c 3.52,1.45374 12.40948,8.28631 12.94642,9.88545 0.71594,2.32596 -7.9349,14.61008 -13.36404,19.04398 -4.59389,3.70704 -6.20474,4.43392 -9.66507,4.43392 -3.87796,0 -7.27864,-2.10794 -9.30711,-5.96034 -1.31254,-2.39868 -1.67051,-3.99779 -1.84949,-8.14094 -0.2983,-6.46914 0.53695,-10.39424 3.04271,-14.39204 4.2956,-6.83257 9.84405,-8.28633 18.19658,-4.87003 z m 55.66365,62.2201 c 2.92339,4.79733 7.93491,16.42725 10.26168,23.91401 3.69899,11.84799 4.95186,20.71581 4.71322,33.50872 -0.35797,21.8788 -8.65083,38.01532 -19.50911,38.01532 -6.92069,0 -11.99187,-5.52421 -15.39254,-16.71801 -3.16202,-10.39424 -3.46033,-22.60567 -0.89491,-37.07039 2.38643,-13.66515 5.42915,-22.96911 11.39524,-35.2532 4.41489,-8.94052 5.30982,-10.46693 6.14507,-10.53962 0.41762,0 1.8495,1.88985 3.28135,4.14317 z"
       id="path323"
       style="fill:#000000;stroke:none;stroke-width:0.0658527" /></g></svg>
